<svg xmlns="http://www.w3.org/2000/svg" width="20.641" height="20.645" viewBox="0 0 20.641 20.645"><defs><style>.a{fill:#fff;}</style></defs><g transform="translate(-0.449)"><path class="a" d="M21.037,6.07a7.544,7.544,0,0,0-.48-2.5A5.288,5.288,0,0,0,17.536.544a7.563,7.563,0,0,0-2.5-.48C13.927.012,13.576,0,10.773,0S7.619.012,6.518.061a7.546,7.546,0,0,0-2.5.48A5.037,5.037,0,0,0,2.183,1.734,5.083,5.083,0,0,0,.993,3.561a7.564,7.564,0,0,0-.48,2.5C.461,7.171.449,7.522.449,10.324s.012,3.154.06,4.255a7.543,7.543,0,0,0,.48,2.5A5.288,5.288,0,0,0,4.01,20.1a7.564,7.564,0,0,0,2.5.48c1.1.049,1.452.06,4.255.06s3.154-.012,4.255-.06a7.542,7.542,0,0,0,2.5-.48,5.281,5.281,0,0,0,3.021-3.021,7.569,7.569,0,0,0,.48-2.5c.048-1.1.06-1.452.06-4.255s0-3.154-.052-4.255ZM19.178,14.5a5.659,5.659,0,0,1-.355,1.916,3.425,3.425,0,0,1-1.96,1.96,5.679,5.679,0,0,1-1.916.355c-1.089.049-1.415.06-4.17.06s-3.085-.012-4.17-.06a5.656,5.656,0,0,1-1.916-.355,3.177,3.177,0,0,1-1.186-.77,3.21,3.21,0,0,1-.77-1.186A5.68,5.68,0,0,1,2.38,14.5c-.049-1.089-.06-1.416-.06-4.17s.012-3.085.06-4.17a5.656,5.656,0,0,1,.355-1.916A3.138,3.138,0,0,1,3.51,3.061,3.2,3.2,0,0,1,4.7,2.291a5.683,5.683,0,0,1,1.916-.355c1.089-.048,1.416-.06,4.17-.06s3.085.012,4.17.06a5.659,5.659,0,0,1,1.916.355,3.174,3.174,0,0,1,1.186.77,3.209,3.209,0,0,1,.77,1.186,5.682,5.682,0,0,1,.355,1.916c.048,1.089.06,1.415.06,4.17s-.012,3.077-.06,4.166Zm0,0" transform="translate(0)"/><path class="a" d="M130.252,124.5a5.3,5.3,0,1,0,5.3,5.3A5.3,5.3,0,0,0,130.252,124.5Zm0,8.744a3.44,3.44,0,1,1,3.44-3.44A3.441,3.441,0,0,1,130.252,133.244Zm0,0" transform="translate(-119.479 -119.479)"/><path class="a" d="M364.926,89.84a1.238,1.238,0,1,1-1.238-1.238A1.238,1.238,0,0,1,364.926,89.84Zm0,0" transform="translate(-347.402 -85.028)"/></g></svg>