<svg xmlns="http://www.w3.org/2000/svg" width="19.243" height="19.243" viewBox="0 0 19.243 19.243"><defs><style>.a{fill:#fff;}</style></defs><path class="a" d="M20.921,20.744h0V13.686c0-3.453-.743-6.112-4.78-6.112a4.19,4.19,0,0,0-3.774,2.074h-.056V7.9H8.489V20.744h3.985V14.382c0-1.675.318-3.295,2.392-3.295,2.044,0,2.074,1.911,2.074,3.4v6.255Z" transform="translate(-1.683 -1.501)"/><path class="a" d="M.4,7.977h3.99V20.824H.4Z" transform="translate(-0.078 -1.581)"/><path class="a" d="M2.311,0A2.322,2.322,0,1,0,4.622,2.311,2.311,2.311,0,0,0,2.311,0Z"/></svg>