<svg xmlns="http://www.w3.org/2000/svg" width="23.784" height="19.324" viewBox="0 0 23.784 19.324"><defs><style>.a{fill:#fff;}</style></defs><g transform="translate(0 -48)"><g transform="translate(0 48)"><path class="a" d="M23.784,50.288a10.166,10.166,0,0,1-2.809.77,4.848,4.848,0,0,0,2.145-2.695,9.744,9.744,0,0,1-3.092,1.18,4.876,4.876,0,0,0-8.434,3.334,5.021,5.021,0,0,0,.113,1.112,13.8,13.8,0,0,1-10.05-5.1,4.877,4.877,0,0,0,1.5,6.517,4.815,4.815,0,0,1-2.2-.6v.054A4.9,4.9,0,0,0,4.858,59.65a4.867,4.867,0,0,1-1.278.161,4.311,4.311,0,0,1-.923-.083,4.922,4.922,0,0,0,4.556,3.4A9.8,9.8,0,0,1,1.167,65.2,9.132,9.132,0,0,1,0,65.136a13.727,13.727,0,0,0,7.48,2.188A13.782,13.782,0,0,0,21.358,53.449c0-.216-.007-.424-.018-.63A9.727,9.727,0,0,0,23.784,50.288Z" transform="translate(0 -48)"/></g></g></svg>