<svg xmlns="http://www.w3.org/2000/svg" width="26.962" height="18.878" viewBox="0 0 26.962 18.878"><defs><style>.a{fill:#fff;}</style></defs><path class="a" d="M26.407-3.128A3.378,3.378,0,0,0,24.031-5.5c-2.11-.577-10.549-.577-10.549-.577s-8.439,0-10.549.555a3.446,3.446,0,0,0-2.376,2.4A35.592,35.592,0,0,0,0,3.357,35.461,35.461,0,0,0,.556,9.842a3.378,3.378,0,0,0,2.376,2.376c2.132.577,10.549.577,10.549.577s8.439,0,10.549-.555a3.378,3.378,0,0,0,2.377-2.376,35.6,35.6,0,0,0,.555-6.485,33.786,33.786,0,0,0-.555-6.507ZM10.794,7.4V-.685l7.018,4.042Zm0,0" transform="translate(-0.001 6.082)"/></svg>