<svg xmlns="http://www.w3.org/2000/svg" width="8.494" height="15" viewBox="0 0 8.494 15"><defs><style>.a{fill:#fff;}</style></defs><g transform="translate(-5.951)"><path class="a" d="M13.354,0H7.043A1.092,1.092,0,0,0,5.951,1.093V13.908A1.091,1.091,0,0,0,7.043,15h6.311a1.092,1.092,0,0,0,1.092-1.092V1.093A1.092,1.092,0,0,0,13.354,0ZM8.641.664h3.116c.079,0,.143.118.143.263s-.064.263-.143.263H8.641c-.079,0-.142-.118-.142-.263S8.562.664,8.641.664ZM10.2,13.922a.7.7,0,1,1,.7-.7A.7.7,0,0,1,10.2,13.922Zm3.429-2.388H6.769V1.844h6.858v9.69Z"/></g></svg>