<svg xmlns="http://www.w3.org/2000/svg" width="180.524" height="202.401" viewBox="0 0 180.524 202.401"><defs><style>.a{fill:#3b3c3e;}.b{fill:#d9a57b;}.c{fill:#b98757;}.d{fill:#313133;}.e{fill:#506cf0;}.f{fill:#464749;}.g{fill:#ffbb81;}.h{fill:#4a4b4d;}.i{fill:#252425;}.j{fill:#ea8f28;}.k{fill:#fe9d2b;}.l{mix-blend-mode:multiply;isolation:isolate;}.m{fill:#c8b7a1;}.n{fill:#ffad4f;}</style></defs><g transform="translate(0 0)"><g transform="translate(49.96 20.854)"><g transform="translate(0 12.736)"><g transform="translate(4.68 5.769)"><path class="a" d="M216.485,201.437l-23.9,5.624,3.768,2.029L180.7,183.779a1.047,1.047,0,0,0-1.866.933L189.7,212.419l.8,2.049,2.965-.019,24.548-.16a6.513,6.513,0,0,0-.085-13.026A6.848,6.848,0,0,0,216.485,201.437Z" transform="translate(-178.765 -183.282)"/></g><g transform="translate(0)"><path class="b" d="M235.747,181.985c1.315,1.891,1.134,4.289-.4,5.358s-3.85.4-5.165-1.487-.043-2.72,1.495-3.788S234.432,180.1,235.747,181.985Z" transform="translate(-227.432 -177.058)"/><path class="b" d="M239.171,180.24l-5.117,4.5a26.875,26.875,0,0,1-2.443-5.236,3.136,3.136,0,0,1-.13-1.386,3.458,3.458,0,0,1,2.91-1.948,1.433,1.433,0,0,1,.883.376C236.781,178.207,238.839,180.312,239.171,180.24Z" transform="translate(-231.447 -176.161)"/><path class="b" d="M229.74,182.5l1.7.719.045-4.439s-1.123.174-1.245.386A13.668,13.668,0,0,0,229.74,182.5Z" transform="translate(-222.376 -176.659)"/></g></g><g transform="translate(30.617 73.023)"><g transform="translate(0 93.116)"><path class="c" d="M186.126,371.994l5.382-.017L190.2,366.5l-5.28-.989Z" transform="translate(-176.704 -365.512)"/><path class="d" d="M181.8,379.908c-.383-2.524,5.234-6.736,8.9-8.1.523-.2.528,1.423,2.84,1.2,3.522-.347,2.3-1.567,3.412-1.038,1.56.74,1.87,2.008,2.125,3.689.437,2.885-2.515,3.486-5.818,3.988S182.241,382.791,181.8,379.908Z" transform="translate(-181.784 -366.703)"/></g><g transform="translate(0.324)"><path class="e" d="M176.906,259.149q-.679,3.01-1.287,6.036l-1.244,6.047q-1.193,6.059-2.311,12.136l-1.1,6.08-1.074,6.087c-.677,4.068-1.4,8.124-2.04,12.2l-.254,1.612.13.654c.585,2.938,1.137,5.881,1.761,8.814l.914,4.4.951,4.4c.32,1.466.636,2.932.976,4.4l1.011,4.392c.7,2.925,1.4,5.849,2.173,8.765l.779,2.928,5.125-.625.054-3.03c.05-3.016.03-6.023,0-9.03l-.075-4.506c-.023-1.5-.066-3-.109-4.5l-.133-4.5-.173-4.494c-.1-3-.271-5.987-.408-8.98l-.125,2.265c1.24-3.935,2.407-7.886,3.614-11.828l1.752-5.927,1.729-5.933q1.714-5.936,3.344-11.892l1.584-5.967q.8-2.981,1.539-5.977l2.1-8.535-17.271-4.065Z" transform="translate(-167.599 -250.575)"/></g></g><g transform="translate(50.436 73.229)"><path class="c" d="M154.455,371.631l5.285-1.01-2.3-5.139h-5.372Z" transform="translate(-138.146 -272.597)"/><path class="d" d="M148.339,380.866c-.84-2.409,3.9-7.584,7.26-9.6.478-.288.782,1.3,3.011.653,3.4-.988,1.969-1.962,3.163-1.647,1.67.44,2.208,1.63,2.767,3.236.961,2.754-1.829,3.888-4.984,4.989S149.3,383.619,148.339,380.866Z" transform="translate(-140.034 -273.494)"/><g transform="translate(0)"><path class="e" d="M154.307,259.611q-.149,3.082-.228,6.168l-.184,6.17q-.131,6.173-.186,12.352l-.033,6.18-.011,6.181c.033,4.123.025,8.243.092,12.369l.028,1.631.241.622c1.082,2.794,2.133,5.6,3.252,8.38l1.66,4.18,1.695,4.169c.566,1.389,1.131,2.78,1.718,4.163l1.752,4.152c1.188,2.762,2.383,5.522,3.65,8.26l1.271,2.751,4.945-1.5-.471-2.994c-.468-2.981-1.008-5.939-1.553-8.9l-.848-4.426c-.28-1.477-.582-2.946-.883-4.415l-.9-4.409-.943-4.4c-.614-2.936-1.3-5.851-1.95-8.776l.268,2.254c.545-4.089,1.013-8.183,1.523-12.275l.706-6.14.682-6.142q.665-6.143,1.244-12.29l.534-6.151q.277-3.073.487-6.152l.594-8.771-17.72-1.029Z" transform="translate(-153.665 -250.83)"/></g></g><path class="f" d="M150.324,252.938l29.054.768s10.132-36.557,5.548-47.212c-1.883-4.377-4.544-3.224-19.188-3.224-7.662,0-13.815-1.228-15.511,3.223C146.107,217.306,150.324,252.938,150.324,252.938Z" transform="translate(-111.128 -168.542)"/><path class="g" d="M169.041,210.546c2.713.978,11.856-6.967,8.946-7.291-1.1-.122-6.506.033-9.039.033S167.334,209.929,169.041,210.546Z" transform="translate(-118.925 -168.56)"/><g transform="translate(68.21 16.812)"><g transform="translate(0 5.439)"><path class="h" d="M94.051,214.182,117.8,211.47l1.472-.168.664-.553,22.83-18.954a2.2,2.2,0,0,0-2.649-3.507l-24.475,16.778,2.136-.719-23.765-2.559a6.235,6.235,0,1,0-1.333,12.4A6.652,6.652,0,0,0,94.051,214.182Z" transform="translate(-87.108 -187.906)"/></g><g transform="translate(52.512)"><path class="g" d="M84.563,186.156c-1.544,1.708-1.671,4.111-.284,5.367s3.766.889,5.312-.818.388-2.691-1-3.947S86.107,184.449,84.563,186.156Z" transform="translate(-83.316 -181.966)"/><path class="g" d="M79.82,184.617l4.5,5.12a26.933,26.933,0,0,0,3.091-4.884,3.119,3.119,0,0,0,.305-1.358,3.465,3.465,0,0,0-2.639-2.3,1.42,1.42,0,0,0-.921.261C82.451,182.906,80.14,184.732,79.82,184.617Z" transform="translate(-77.881 -181.192)"/><path class="g" d="M91.092,186.722l-1.778.5.521-4.409s1.091.317,1.187.541A13.676,13.676,0,0,1,91.092,186.722Z" transform="translate(-89.018 -181.499)"/></g></g><rect class="g" width="10.128" height="11.488" transform="translate(48.977 24.268)"/><g transform="translate(39.637)"><path class="i" d="M161.313,173.9c-3.717-.544,3.659-9,11.935-8.836,11.895.227,13.94,5.9,11.379,10.882C181.145,182.723,162.761,174.113,161.313,173.9Z" transform="translate(-159.895 -161.318)"/><path class="g" d="M180.557,178.676c1.253,5.85,2.123,13.8-3.727,15.049s-16.553-1.133-18.573-10.563c-1.253-5.852.053-13.176,5.9-14.43C176.749,166.037,179.3,172.826,180.557,178.676Z" transform="translate(-153.738 -161.899)"/><path class="d" d="M186.919,168.167c2.261,1.915-.9,4.176-2.53,7.935-.737,1.695-.442,3.992-1,6.13-.347,1.327,1.19,3.463.937,4.907-.74,4.24-.664,5.789-4.576,2.475S173.7,182.6,174.6,175.069C175.672,166.033,183.006,164.853,186.919,168.167Z" transform="translate(-173.398 -161.586)"/><path class="d" d="M183.331,162.14a3.868,3.868,0,0,0,2.383-1.7c.595,1.71-.174,5.323-1.154,6.792-.877,1.316-2.987,1.951-4.373,2.485-3.078,1.185-8.342,2.083-10.085,5.255-2.587,4.714-7.957,1.732-9.709-2.039-1.13-2.436-.628-4.175.413-6.448,1.269-2.772,2.71-4.4,6.141-4.247,1.074.046,2.207.507,3.269.533a25.546,25.546,0,0,0,3.792-.483c2.225-.3,4.657-1.722,6.877-.793C181.74,161.852,182.047,162.441,183.331,162.14Z" transform="translate(-159.752 -160.44)"/><path class="g" d="M181.918,186.307c.206,1.532.053,3.482-1.1,3.638s-2.879-1.541-3.087-3.072.563-2.9,1.72-3.057S181.711,184.775,181.918,186.307Z" transform="translate(-170.361 -164.875)"/><path class="d" d="M156.845,183.064c.316-.09,1.582,3.075,2.516,3.439,1.573.613,2.3,2.765,3.992,3.429,2.163.847,5.81-1.933,7.828-2.513,4.355-1.252,2.866.605,3.29,2.921.386,2.11,1.373,3.289-.3,4.8-1.736,1.569-3.624,1.416-5.91,1.7-7.505.924-8.43-2.989-9.928-6.892C158.33,189.949,155.537,183.431,156.845,183.064Z" transform="translate(-146.303 -164.735)"/><path class="g" d="M163.959,190.089a3.023,3.023,0,0,1-1.679,2.938c-1.059.281-2.43.089-2.651-.738s.975-1.308,2.03-1.589S163.741,189.262,163.959,190.089Z" transform="translate(-137.701 -166.013)"/></g></g><g transform="translate(0)"><g transform="translate(0)"><path class="j" d="M201.365,79.406l52.144,18.281,12.127-34.592L233.5,71.25,213.491,44.814Z" transform="translate(-201.365 -44.814)"/></g><g transform="translate(0 25.783)"><path class="k" d="M290.89,151.377,238.746,133.1l32.365-8.809Z" transform="translate(-238.746 -124.287)"/></g><g class="l"><path class="m" d="M249.6,47.751l-10.32,29.439,49.248,17.265L287.4,97.687,235.251,79.406l12.127-34.592Z" transform="translate(-235.251 -44.814)"/></g><g transform="translate(12.127)"><path class="n" d="M201.365,44.814l52.145,18.281-32.137,8.156Z" transform="translate(-201.365 -44.814)"/></g></g></g></svg>