<svg xmlns="http://www.w3.org/2000/svg" width="14.204" height="12.484" viewBox="0 0 14.204 12.484"><defs><style>.a{opacity:0.7;}.b{fill:#101010;}</style></defs><g class="a" transform="translate(0 -31)"><path class="b" d="M.416,41.819H2.5v1.248a.416.416,0,0,0,.416.416H13.787a.416.416,0,0,0,.416-.416V32.248a.416.416,0,0,0-.416-.416H11.707v-.416a.416.416,0,0,0-.832,0v.416H8.766v-.416a.416.416,0,0,0-.832,0v.416H5.853v-.416a.416.416,0,0,0-.832,0v.416H2.913a.416.416,0,0,0-.416.416v2.5A8.743,8.743,0,0,1,.149,41.084a.416.416,0,0,0,.266.736Zm12.955.832H3.329v-.832h7.962a.416.416,0,0,0,.266-.1,7.68,7.68,0,0,0,1.814-2.679ZM3.329,32.665H5.021v.416a.416.416,0,1,0,.832,0v-.416H7.934v.416a.416.416,0,1,0,.832,0v-.416h2.108v.416a.416.416,0,1,0,.832,0v-.416h1.665v1.665H3.329Zm-.007,2.5H13.364a8.721,8.721,0,0,1-2.236,5.826H1.362a10.014,10.014,0,0,0,1.959-5.826Z" transform="translate(0 0)"/></g></svg>