<svg width="544" height="384" viewBox="0 0 544 384" fill="none" xmlns="http://www.w3.org/2000/svg">
<path d="M459.326 361.474H73.5669V362.129H459.326V361.474Z" fill="#506CF0"/>
<path d="M328.166 368.466H107.259V369.121H328.166V368.466Z" fill="#506CF0"/>
<path d="M439.454 275.104H377.764C376.362 275.105 375.017 275.663 374.026 276.654C373.034 277.645 372.477 278.99 372.476 280.392V361.792H444.743V280.392C444.742 278.99 444.184 277.645 443.193 276.654C442.201 275.662 440.856 275.105 439.454 275.104V275.104Z" fill="#DCE2FC"/>
<path d="M445.057 362.13H372.136V280.403C372.137 278.914 372.73 277.487 373.782 276.434C374.835 275.381 376.263 274.789 377.752 274.788H439.443C440.182 274.786 440.914 274.931 441.597 275.214C442.279 275.497 442.899 275.913 443.42 276.437C443.942 276.956 444.355 277.574 444.635 278.256C444.914 278.937 445.055 279.667 445.048 280.403V362.13H445.057ZM372.791 361.474H444.403V280.402C444.409 279.751 444.285 279.105 444.037 278.502C443.789 277.9 443.423 277.354 442.961 276.895C442.501 276.43 441.953 276.062 441.349 275.811C440.745 275.559 440.097 275.43 439.443 275.431H377.752C376.437 275.432 375.175 275.955 374.245 276.885C373.315 277.815 372.793 279.077 372.792 280.392L372.791 361.474Z" fill="#001021"/>
<path d="M453.504 362.119H363.812V183.326H453.504V362.119ZM364.479 361.464H452.86V183.982H364.479V361.464Z" fill="#001021"/>
<path d="M472.676 183.982H149.864V161.018H455.513V161.674H150.519V183.327H472.675L472.676 183.982Z" fill="#001021"/>
<path d="M439.456 225.845H377.873C376.384 225.844 374.957 225.252 373.904 224.199C372.851 223.146 372.259 221.719 372.258 220.23V198.49C372.259 197.001 372.851 195.574 373.904 194.521C374.957 193.468 376.384 192.876 377.873 192.875H439.456C440.945 192.876 442.372 193.468 443.425 194.521C444.478 195.574 445.069 197.001 445.071 198.49V220.24C445.067 221.727 444.474 223.152 443.422 224.203C442.369 225.254 440.943 225.844 439.456 225.845V225.845ZM377.873 193.519C376.558 193.52 375.297 194.043 374.367 194.973C373.438 195.902 372.915 197.163 372.914 198.478V220.218C372.915 221.533 373.437 222.794 374.367 223.724C375.297 224.654 376.558 225.177 377.873 225.178H439.456C440.106 225.179 440.751 225.051 441.352 224.803C441.954 224.555 442.5 224.19 442.961 223.731C443.421 223.271 443.787 222.725 444.036 222.125C444.286 221.524 444.414 220.88 444.415 220.229V198.474C444.414 197.159 443.891 195.898 442.961 194.968C442.032 194.039 440.771 193.516 439.456 193.515L377.873 193.519Z" fill="#001021"/>
<path d="M439.456 265.217H377.873C376.384 265.216 374.956 264.624 373.904 263.571C372.851 262.518 372.259 261.091 372.258 259.602V237.862C372.259 236.373 372.851 234.946 373.904 233.893C374.957 232.84 376.384 232.248 377.873 232.247H439.456C440.945 232.248 442.372 232.84 443.425 233.893C444.478 234.945 445.07 236.373 445.071 237.862V259.602C445.068 261.09 444.475 262.517 443.423 263.569C442.371 264.621 440.944 265.214 439.456 265.217V265.217ZM377.873 232.892C376.558 232.893 375.297 233.416 374.367 234.346C373.438 235.275 372.915 236.536 372.914 237.851V259.591C372.915 260.906 373.437 262.167 374.367 263.097C375.297 264.027 376.558 264.55 377.873 264.551H439.456C440.771 264.55 442.032 264.027 442.962 263.097C443.891 262.167 444.414 260.906 444.415 259.591V237.847C444.414 236.532 443.891 235.271 442.961 234.342C442.031 233.412 440.771 232.889 439.456 232.888L377.873 232.892Z" fill="#001021"/>
<path d="M408.877 213.642C407.974 213.642 407.091 213.375 406.339 212.873C405.588 212.371 405.003 211.658 404.657 210.823C404.311 209.989 404.221 209.07 404.397 208.184C404.573 207.298 405.008 206.484 405.647 205.846C406.285 205.207 407.099 204.772 407.985 204.596C408.871 204.42 409.79 204.51 410.624 204.856C411.459 205.202 412.172 205.787 412.674 206.538C413.175 207.29 413.443 208.173 413.443 209.076C413.442 210.287 412.96 211.447 412.104 212.303C411.248 213.159 410.088 213.641 408.877 213.642ZM408.877 205.176C408.103 205.176 407.347 205.405 406.704 205.835C406.06 206.264 405.559 206.875 405.263 207.59C404.967 208.305 404.889 209.091 405.04 209.85C405.191 210.608 405.563 211.306 406.11 211.853C406.657 212.4 407.354 212.772 408.113 212.923C408.872 213.074 409.658 212.996 410.373 212.7C411.088 212.404 411.699 211.903 412.128 211.259C412.558 210.616 412.787 209.86 412.787 209.086C412.785 208.05 412.372 207.057 411.639 206.324C410.906 205.591 409.913 205.178 408.877 205.176V205.176Z" fill="#506CF0"/>
<path d="M408.877 253.135C407.974 253.135 407.091 252.867 406.34 252.366C405.589 251.864 405.004 251.151 404.659 250.316C404.313 249.482 404.223 248.564 404.399 247.678C404.575 246.793 405.01 245.979 405.648 245.34C406.287 244.702 407.1 244.267 407.986 244.091C408.872 243.914 409.79 244.005 410.624 244.351C411.459 244.696 412.172 245.281 412.673 246.032C413.175 246.783 413.443 247.666 413.443 248.569C413.442 249.78 412.96 250.94 412.104 251.796C411.248 252.652 410.088 253.134 408.877 253.135ZM408.877 244.657C408.104 244.657 407.347 244.886 406.704 245.316C406.061 245.745 405.559 246.356 405.263 247.07C404.967 247.785 404.889 248.571 405.04 249.33C405.191 250.089 405.563 250.786 406.11 251.333C406.657 251.88 407.353 252.253 408.112 252.404C408.871 252.555 409.657 252.478 410.372 252.182C411.086 251.886 411.697 251.385 412.127 250.742C412.557 250.099 412.787 249.342 412.787 248.569C412.786 247.532 412.374 246.538 411.641 245.805C410.908 245.071 409.914 244.659 408.877 244.658V244.657Z" fill="#506CF0"/>
<path d="M435.323 302.219L435.224 302.777L435.19 303.105L433.835 311.745L433.683 312.673L433.072 316.606L432.854 317.994L432.284 321.643L432.133 322.571L430.745 331.507V331.55L430.604 332.468L430.515 332.895L429.193 341.437L429.051 342.365L428.417 346.396V346.407L428.198 347.783L427.643 351.333L427.5 352.262L426.101 361.242L426.091 361.296L426.025 361.71L426.015 361.799H389.384L389.373 361.699L389.307 361.327L389.284 361.208L387.885 352.249L387.73 351.31L387.185 347.825L386.978 346.425L386.343 342.339L386.202 341.41L384.869 332.922L384.792 332.441L384.651 331.535V331.513L383.241 322.533L383.1 321.605L382.531 318.021L382.324 316.645L381.702 312.645L381.56 311.717L380.216 303.142L380.074 302.213L435.323 302.219Z" fill="white"/>
<path d="M426.365 362.206H389.037L388.883 361.245L379.598 301.815H435.798L426.365 362.206ZM389.724 361.398H425.665L434.843 302.633H380.536L389.724 361.398Z" fill="#506CF0"/>
<path d="M435.827 302.219C435.83 302.408 435.801 302.597 435.74 302.776C435.292 304.142 433.26 305.408 430.07 306.447C429.84 306.523 429.6 306.588 429.37 306.666C426.976 307.355 424.537 307.874 422.07 308.218C421.808 308.261 421.547 308.294 421.27 308.338C418.823 308.676 416.148 308.927 413.317 309.068C413.034 309.08 412.761 309.092 412.465 309.112C410.913 309.177 409.309 309.221 407.681 309.221C406.424 309.221 405.191 309.199 403.981 309.156C403.686 309.145 403.381 309.134 403.081 309.112C399.825 308.982 396.745 308.712 393.958 308.312C393.619 308.257 393.291 308.225 392.964 308.171C388.233 307.449 384.422 306.401 382.094 305.133C381.007 304.676 380.124 303.837 379.614 302.774L379.537 302.228C379.537 298.371 392.137 295.258 407.668 295.258C423.115 295.258 435.658 298.35 435.799 302.184C435.827 302.176 435.827 302.198 435.827 302.219Z" fill="#506CF0"/>
<path d="M426.114 361.254V361.779L426.028 361.713L426.017 361.789H425.678L421.516 356.414L421.089 355.857L416.905 350.457L416.479 349.901L412.293 344.501L411.867 343.945L407.683 338.545L407.256 337.988L403.072 332.588L402.646 332.031L398.472 326.631L398.046 326.075L393.862 320.675L393.435 320.119L389.263 314.719L388.836 314.162L384.663 308.762L384.237 308.205L380.237 303.037L380.172 302.655C380.662 303.703 381.527 304.529 382.597 304.971L384.662 307.626L385.089 308.183L389.273 313.583L389.7 314.14L393.884 319.54L394.311 320.099L398.495 325.499L398.921 326.055L403.106 331.455L403.533 332.012L407.717 337.412L408.142 337.968L412.327 343.368L412.754 343.926L416.938 349.326L417.363 349.883L421.548 355.283L421.974 355.84L426.137 361.215L426.114 361.254Z" fill="#506CF0"/>
<path d="M427.644 351.335L427.503 352.264L426.126 350.483L425.699 349.927L421.515 344.527L421.088 343.969L416.904 338.569L416.479 338.012L412.295 332.612L411.868 332.055L407.683 326.655L407.258 326.099L403.116 320.756L402.69 320.199L398.505 314.799L398.078 314.242L393.894 308.842L393.468 308.285L393.286 308.074C393.602 308.129 393.92 308.162 394.247 308.216L394.313 308.303L398.497 313.703L398.923 314.26L403.108 319.66L403.535 320.216L407.719 325.616L408.146 326.173L412.33 331.573L412.756 332.131L416.94 337.531L417.367 338.088L421.552 343.488L421.978 344.044L426.163 349.444L426.59 350L427.644 351.335Z" fill="#506CF0"/>
<path d="M429.195 341.437L429.053 342.366L426.126 338.585L425.699 338.029L421.514 332.629L421.088 332.072L416.903 326.672L416.476 326.115L412.293 320.715L411.866 320.158L407.682 314.758L407.255 314.202L403.184 308.948C403.479 308.958 403.774 308.97 404.069 308.991L407.695 313.655L408.122 314.213L412.307 319.613L412.733 320.17L416.917 325.57L417.343 326.126L421.528 331.526L421.953 332.082L426.138 337.482L426.565 338.039L429.195 341.437Z" fill="#506CF0"/>
<path d="M430.748 331.55L430.606 332.478L430.311 332.086L426.127 326.686L425.7 326.127L421.515 320.727L421.089 320.17L416.904 314.77L416.477 314.213L412.403 308.948C412.676 308.937 412.961 308.925 413.233 308.905L416.904 313.646L417.331 314.202L421.515 319.602L421.942 320.158L426.127 325.558L426.552 326.115L430.736 331.515L430.748 331.55Z" fill="#506CF0"/>
<path d="M398.727 361.594L398.464 361.794L398.454 361.805H398.027L393.854 356.442L393.428 355.872L389.255 350.472L388.818 349.926L387.19 347.826L386.982 346.426L389.255 349.364L389.682 349.921L393.854 355.307L394.28 355.863L398.465 361.263L398.727 361.594Z" fill="#506CF0"/>
<path d="M389.495 361.593L389.375 361.702L389.31 361.331L389.495 361.593Z" fill="#506CF0"/>
<path d="M407.948 361.594L407.685 361.794L407.674 361.805H407.238L403.086 356.441L402.649 355.873L398.464 350.473L398.038 349.926L393.853 344.526L393.426 343.98V343.97L389.255 338.583L388.817 338.027L384.873 332.927L384.797 332.446L384.655 331.539L385.07 332.085L389.255 337.485L389.68 338.031L393.852 343.431L394.279 343.987L398.463 349.374L398.9 349.929L403.085 355.316L403.512 355.873L407.684 361.273L407.948 361.594Z" fill="#506CF0"/>
<path d="M417.156 361.593L416.905 361.793L416.884 361.804H416.457L412.295 356.439L411.87 355.871L407.686 350.471L407.26 349.925L403.086 344.525L402.649 343.978L398.465 338.578L398.038 338.023L393.853 332.636L393.427 332.079L389.254 326.679L388.817 326.132L384.633 320.732L384.206 320.175L382.535 318.011L382.327 316.635L384.632 319.616L385.069 320.175L389.253 325.56L389.68 326.129L393.852 331.504L394.279 332.072L398.464 337.472L398.901 338.019L403.085 343.419L403.51 343.975L407.685 349.362L408.111 349.918L412.295 355.304L412.733 355.861L416.905 361.261L417.156 361.593Z" fill="#506CF0"/>
<path d="M432.287 321.642L432.145 322.571L430.736 320.746L430.31 320.189L426.126 314.789L425.699 314.232L421.515 308.832L421.09 308.276L421.034 308.21C421.297 308.167 421.558 308.134 421.798 308.09L421.941 308.276L426.125 313.676L426.551 314.233L430.735 319.633L431.162 320.19L432.287 321.642Z" fill="#506CF0"/>
<path d="M433.839 311.745L433.697 312.674L430.736 308.85L430.31 308.293L428.987 306.593C429.217 306.527 429.458 306.451 429.675 306.375L430.735 307.741L431.161 308.297L433.839 311.745Z" fill="#506CF0"/>
<path d="M435.696 302.426L435.335 302.896L435.226 302.765C435.287 302.589 435.317 302.405 435.314 302.219V302.153L435.324 302.142L435.696 302.426Z" fill="#506CF0"/>
<path d="M433.074 316.606L432.855 317.992L431.161 320.192L430.735 320.749L426.551 326.149L426.114 326.695L421.94 332.095L421.514 332.65L417.329 338.037L416.902 338.593L412.731 343.993L412.293 344.539L408.109 349.939L407.682 350.485L403.509 355.885L403.082 356.454L398.91 361.818H398.483L398.461 361.806L398.221 361.606L398.461 361.278L402.645 355.878L403.082 355.322L407.257 349.936L407.682 349.378L411.867 343.993L412.293 343.436L416.465 338.036L416.902 337.489L421.087 332.089L421.514 331.519L425.687 326.144L426.114 325.576L430.298 320.19L430.735 319.633L433.074 316.606Z" fill="#506CF0"/>
<path d="M435.193 303.106L431.162 308.306L430.736 308.863L426.552 314.263L426.125 314.82L421.94 320.22L421.514 320.777L417.329 326.177L416.902 326.733L412.74 332.076L412.314 332.633L408.13 338.033L407.703 338.59L403.518 343.99L403.092 344.548L398.907 349.948L398.481 350.504L394.297 355.904L393.871 356.461L389.708 361.836H389.391L389.381 361.727L389.326 361.366L389.272 361.3L389.315 361.245L393.456 355.903L393.883 355.346L398.068 349.946L398.494 349.389L402.678 343.989L403.104 343.433L407.289 338.033L407.715 337.476L411.9 332.076L412.327 331.519L416.511 326.119L416.937 325.562L421.122 320.162L421.549 319.606L425.733 314.206L426.159 313.649L430.332 308.249L430.758 307.692L432.801 305.048C433.883 304.598 434.762 303.765 435.27 302.709L435.193 303.106Z" fill="#506CF0"/>
<path d="M422.115 308.075L421.928 308.305L421.503 308.862L417.319 314.262L416.892 314.819L412.707 320.219L412.282 320.776L408.098 326.176L407.671 326.733L403.487 332.133L403.061 332.69L398.876 338.09L398.449 338.647L394.265 344.047L393.838 344.604L389.654 350.004L389.227 350.561L387.862 352.32L387.72 351.392L388.802 349.992L389.228 349.435L393.401 344.035L393.828 343.478L398.012 338.078L398.439 337.521L402.612 332.121L403.038 331.565L407.222 326.165L407.649 325.608L411.833 320.208L412.26 319.651L416.445 314.251L416.87 313.692L421.054 308.292L421.12 308.205C421.339 308.183 421.567 308.139 421.775 308.118C421.908 308.097 422.005 308.086 422.115 308.075Z" fill="#506CF0"/>
<path d="M412.196 308.981L408.123 314.236L407.696 314.792L403.512 320.192L403.087 320.749L398.902 326.149L398.475 326.706L394.27 332.113L393.843 332.67L389.659 338.07L389.232 338.627L386.327 342.385L386.185 341.456L388.806 338.07L389.233 337.513L393.418 332.113L393.844 331.556L398.029 326.156L398.456 325.599L402.64 320.199L403.066 319.641L407.25 314.241L407.677 313.684L411.304 309.019C411.595 309.014 411.89 308.992 412.196 308.981Z" fill="#506CF0"/>
<path d="M428.419 346.408L428.2 347.783L426.551 349.925L426.114 350.471L421.941 355.871L421.515 356.439L417.342 361.803H416.916L416.905 361.792L416.654 361.592L416.905 361.264L421.089 355.864L421.516 355.307L425.688 349.921L426.115 349.365L428.419 346.408Z" fill="#506CF0"/>
<path d="M430.517 332.894L426.552 338.029L426.115 338.586L421.942 343.986L421.517 344.532L417.333 349.932L416.907 350.479L412.734 355.879L412.297 356.448L408.135 361.811H407.697L407.687 361.8L407.436 361.6L407.687 361.271L411.871 355.871L412.297 355.314L416.47 349.928L416.907 349.371L421.092 343.986L421.518 343.429L425.691 338.029L426.116 337.483L430.3 332.083L430.737 331.515L430.748 331.505V331.548L430.607 332.466L430.517 332.894Z" fill="#506CF0"/>
<path d="M402.976 308.971L398.9 314.236L398.474 314.793L394.29 320.193L393.863 320.75L389.679 326.15L389.253 326.706L385.068 332.106L384.795 332.466L384.654 331.566L384.643 331.555L384.654 331.545L388.826 326.159L389.253 325.602L393.425 320.202L393.852 319.645L398.037 314.245L398.463 313.688L402.134 308.948C402.429 308.949 402.703 308.959 402.976 308.971Z" fill="#506CF0"/>
<path d="M394.346 308.228L394.291 308.305L393.864 308.861L389.68 314.261L389.254 314.819L385.069 320.219L384.642 320.776L383.242 322.576L383.1 321.647L384.2 320.216L384.626 319.659L388.8 314.259L389.226 313.703L393.411 308.303L393.553 308.117C393.76 308.139 393.979 308.182 394.208 308.204L394.346 308.228Z" fill="#506CF0"/>
<path d="M386.393 306.589L385.061 308.294L384.634 308.85L381.684 312.641L381.542 311.712L384.197 308.281L384.624 307.725L385.695 306.36C385.935 306.447 386.163 306.524 386.393 306.589Z" fill="#506CF0"/>
<path d="M438.001 294.571H425.972V290.912H433.272C434.354 290.911 435.406 291.27 436.262 291.932C437.119 292.595 437.73 293.523 438.001 294.571Z" fill="white"/>
<path d="M438.362 294.844H425.7V290.639H433.271C434.414 290.64 435.524 291.021 436.427 291.721C437.33 292.42 437.976 293.4 438.263 294.506L438.362 294.844ZM426.247 294.298H437.647C437.336 293.389 436.749 292.6 435.967 292.041C435.185 291.483 434.248 291.184 433.287 291.185H426.263V294.298H426.247Z" fill="#001021"/>
<path d="M433.347 290.901C431.684 290.917 430.072 291.473 428.754 292.486C427.435 293.499 426.483 294.914 426.04 296.517L423.265 306.588C422.872 306.654 422.465 306.72 422.065 306.775C421.802 306.818 421.539 306.851 421.265 306.896C418.818 307.235 416.141 307.486 413.312 307.627C413.028 307.638 412.755 307.649 412.459 307.67C410.908 307.736 409.303 307.779 407.675 307.779C406.419 307.779 405.186 307.757 403.975 307.714C403.68 307.704 403.375 307.692 403.075 307.67C402.954 307.67 402.845 307.66 402.725 307.66L405.807 296.527C406.254 294.909 407.22 293.483 408.558 292.468C409.895 291.454 411.529 290.907 413.207 290.912H433.351L433.347 290.901Z" fill="white"/>
<path d="M407.685 308.042C406.549 308.042 405.336 308.02 403.971 307.977L403.071 307.933C403.009 307.935 402.948 307.931 402.887 307.922C402.832 307.922 402.778 307.912 402.723 307.912H402.362L405.53 296.43C405.994 294.756 406.994 293.279 408.377 292.228C409.761 291.176 411.45 290.607 413.188 290.607H433.343V291.153C431.739 291.174 430.186 291.713 428.914 292.69C427.642 293.666 426.72 295.028 426.286 296.572L423.467 306.819L423.293 306.852C422.91 306.918 422.493 306.983 422.079 307.037H422.046C421.796 307.07 421.546 307.114 421.282 307.146C418.802 307.485 416.115 307.736 413.308 307.878L412.455 307.921C410.833 308.006 409.215 308.042 407.685 308.042ZM403.085 307.397L403.991 307.441C405.347 307.484 406.559 307.506 407.684 307.506C409.201 307.506 410.808 307.473 412.458 307.397L413.3 307.354C416.1 307.212 418.761 306.972 421.231 306.623C421.492 306.59 421.744 306.546 421.985 306.514H422.018C422.366 306.47 422.706 306.414 423.045 306.36L425.776 296.451C426.109 295.262 426.714 294.166 427.542 293.251C428.37 292.335 429.4 291.624 430.55 291.174H413.202C411.586 291.175 410.014 291.706 408.728 292.684C407.441 293.663 406.511 295.036 406.078 296.593L403.085 307.397Z" fill="#001021"/>
<path d="M425.109 73.698L455.885 161.346H343.186L373.141 73.698H425.109Z" fill="#F9CDD5"/>
<path d="M416.733 148.783H416.078V63.254C416.076 61.5886 415.413 59.9919 414.236 58.8143C413.058 57.6367 411.462 56.9741 409.796 56.972H405.973C404.308 56.9741 402.711 57.6367 401.533 58.8143C400.356 59.9919 399.693 61.5886 399.691 63.254H399.036C399.039 61.4148 399.771 59.6517 401.071 58.3513C402.372 57.051 404.135 56.3194 405.974 56.317H409.797C411.636 56.3196 413.399 57.0513 414.7 58.3517C416 59.652 416.732 61.4149 416.735 63.254L416.733 148.783Z" fill="#506CF0"/>
<path d="M425.285 158.56V161.205H397.416V158.56C397.421 155.968 398.452 153.484 400.285 151.652C402.118 149.819 404.602 148.787 407.194 148.783H415.494C415.625 148.783 415.768 148.783 415.894 148.794C418.418 148.893 420.805 149.965 422.556 151.786C424.307 153.606 425.285 156.034 425.285 158.56Z" fill="white"/>
<path d="M425.613 161.532H397.088V158.56C397.077 156.314 397.828 154.13 399.218 152.366C400.159 151.147 401.368 150.161 402.751 149.483C404.133 148.805 405.653 148.453 407.193 148.455H415.493C415.625 148.455 415.777 148.455 415.92 148.466C418.529 148.564 420.997 149.671 422.805 151.555C424.613 153.438 425.619 155.95 425.61 158.56L425.613 161.532ZM397.743 160.876H424.956V158.56C424.961 156.119 424.019 153.771 422.328 152.011C420.637 150.25 418.329 149.214 415.89 149.121H415.866C415.757 149.11 415.627 149.11 415.495 149.11H407.195C404.69 149.11 402.288 150.103 400.516 151.873C398.744 153.643 397.747 156.044 397.745 158.549L397.743 160.876Z" fill="#E83151"/>
<path d="M431.478 74.07H366.99V72.049C366.99 70.8997 367.216 69.7616 367.656 68.6998C368.095 67.638 368.74 66.6732 369.552 65.8605C370.365 65.0478 371.33 64.4033 372.392 63.9636C373.454 63.5239 374.592 63.2977 375.741 63.298H422.727C423.876 63.2977 425.014 63.5239 426.076 63.9636C427.138 64.4033 428.103 65.0478 428.916 65.8605C429.728 66.6732 430.373 67.638 430.812 68.6998C431.252 69.7616 431.478 70.8997 431.478 72.049V74.07V74.07Z" fill="#E83151"/>
<path d="M431.479 72.726H366.99C366.918 72.726 366.848 72.6972 366.797 72.646C366.746 72.5948 366.717 72.5254 366.717 72.453C366.717 72.3806 366.746 72.3112 366.797 72.26C366.848 72.2088 366.918 72.18 366.99 72.18H431.479C431.515 72.1796 431.551 72.1864 431.584 72.2C431.617 72.2135 431.647 72.2336 431.673 72.2591C431.698 72.2845 431.718 72.3147 431.732 72.348C431.746 72.3813 431.752 72.4171 431.752 72.453C431.751 72.5251 431.722 72.5939 431.671 72.6449C431.62 72.6959 431.551 72.7249 431.479 72.726V72.726Z" fill="white"/>
<path d="M424.74 74.07C424.74 76.375 423.308 78.254 421.517 78.254H376.388C374.617 78.254 373.164 76.375 373.164 74.07H424.74Z" fill="white"/>
<path d="M416.402 151.339C416.402 155.524 412.579 158.921 407.88 158.921C403.642 158.921 400.125 156.168 399.469 152.563C400.381 151.387 401.551 150.435 402.887 149.78C404.224 149.125 405.692 148.784 407.181 148.783H415.481C415.611 148.783 415.753 148.783 415.881 148.794C416.229 149.597 416.406 150.464 416.402 151.339V151.339Z" fill="white"/>
<path d="M407.881 159.244C405.811 159.254 403.793 158.59 402.134 157.353C400.578 156.205 399.512 154.512 399.151 152.612L399.13 152.47L399.217 152.35C400.158 151.131 401.367 150.145 402.75 149.467C404.133 148.788 405.653 148.437 407.193 148.439H415.493C415.625 148.439 415.793 148.439 415.93 148.45L416.13 148.472L416.206 148.647C416.561 149.491 416.743 150.397 416.741 151.313C416.73 155.698 412.764 159.244 407.881 159.244ZM399.819 152.644C400.519 156.097 403.882 158.587 407.882 158.587C412.405 158.587 416.074 155.332 416.074 151.333C416.081 150.572 415.945 149.816 415.674 149.105H407.197C405.78 149.102 404.38 149.42 403.103 150.033C401.825 150.647 400.703 151.541 399.819 152.649V152.644Z" fill="#E83151"/>
<path d="M408.111 146.991V151.091C408.059 151.507 407.858 151.889 407.544 152.167C407.23 152.444 406.826 152.597 406.407 152.597C405.988 152.597 405.584 152.444 405.27 152.167C404.956 151.889 404.754 151.507 404.703 151.091V146.991H404.725C404.827 147.356 405.046 147.678 405.347 147.907C405.649 148.136 406.018 148.26 406.397 148.26C406.776 148.26 407.144 148.136 407.446 147.907C407.748 147.678 407.967 147.356 408.069 146.991H408.111Z" fill="#E83151"/>
<path d="M407.751 146.849C407.749 146.94 407.741 147.032 407.728 147.122C407.676 147.438 407.513 147.726 407.269 147.933C407.026 148.141 406.716 148.256 406.396 148.258C406.076 148.253 405.769 148.136 405.526 147.929C405.282 147.722 405.119 147.437 405.063 147.122C405.051 147.032 405.044 146.94 405.042 146.849C405.037 146.667 405.069 146.486 405.134 146.317C405.2 146.147 405.299 145.992 405.425 145.861C405.551 145.73 405.702 145.626 405.869 145.553C406.035 145.481 406.215 145.442 406.397 145.44C406.762 145.452 407.107 145.606 407.36 145.869C407.613 146.132 407.753 146.484 407.751 146.849V146.849Z" fill="white"/>
<path d="M406.396 148.586C406.002 148.579 405.622 148.435 405.322 148.18C405.021 147.925 404.818 147.574 404.747 147.186V147.164C404.73 147.059 404.719 146.953 404.714 146.847C404.709 146.623 404.748 146.399 404.83 146.19C404.912 145.981 405.035 145.791 405.192 145.63C405.349 145.47 405.536 145.342 405.743 145.255C405.95 145.168 406.172 145.123 406.396 145.123C406.621 145.123 406.843 145.168 407.05 145.255C407.257 145.342 407.444 145.47 407.601 145.63C407.758 145.791 407.881 145.981 407.963 146.19C408.045 146.399 408.085 146.623 408.079 146.847C408.079 146.954 408.068 147.06 408.046 147.164V147.175C407.982 147.567 407.781 147.924 407.479 148.182C407.177 148.44 406.793 148.583 406.396 148.586V148.586ZM405.391 147.067C405.435 147.304 405.558 147.519 405.741 147.676C405.924 147.833 406.155 147.923 406.396 147.93C406.638 147.927 406.87 147.838 407.053 147.68C407.236 147.523 407.357 147.305 407.396 147.067C407.408 146.995 407.415 146.922 407.417 146.849C407.421 146.57 407.316 146.301 407.124 146.099C406.933 145.897 406.669 145.778 406.391 145.768C406.252 145.77 406.115 145.799 405.987 145.854C405.86 145.91 405.745 145.99 405.649 146.091C405.553 146.192 405.479 146.311 405.43 146.441C405.381 146.571 405.358 146.71 405.364 146.849C405.368 146.922 405.377 146.995 405.391 147.067V147.067Z" fill="#E83151"/>
<path d="M363.353 101.938H358.896V161.357H363.353V101.938Z" fill="#E83151"/>
<path d="M357.027 161.35H349.391C349.198 161.35 349.008 161.312 348.83 161.239C348.652 161.165 348.491 161.057 348.355 160.922C348.219 160.786 348.111 160.624 348.037 160.446C347.964 160.269 347.926 160.078 347.926 159.886V115.717C347.926 115.329 348.081 114.956 348.355 114.682C348.63 114.407 349.002 114.253 349.391 114.253H357.027C357.415 114.253 357.787 114.407 358.062 114.682C358.337 114.956 358.491 115.329 358.491 115.717V159.886C358.492 160.079 358.454 160.269 358.381 160.447C358.308 160.625 358.2 160.787 358.064 160.923C357.928 161.059 357.766 161.167 357.588 161.24C357.41 161.314 357.219 161.351 357.027 161.35V161.35Z" fill="white"/>
<path d="M357.028 161.619H349.391C348.931 161.618 348.49 161.434 348.164 161.109C347.839 160.783 347.655 160.342 347.654 159.882V115.714C347.655 115.254 347.839 114.813 348.164 114.487C348.49 114.162 348.931 113.978 349.391 113.977H357.028C357.488 113.978 357.929 114.162 358.254 114.487C358.579 114.813 358.763 115.254 358.764 115.714V159.882C358.764 160.11 358.719 160.336 358.632 160.547C358.545 160.758 358.418 160.949 358.256 161.111C358.095 161.272 357.903 161.4 357.693 161.487C357.482 161.575 357.256 161.619 357.028 161.619ZM349.391 114.534C349.075 114.535 348.773 114.661 348.55 114.884C348.327 115.107 348.201 115.409 348.201 115.725V159.893C348.201 160.208 348.327 160.511 348.55 160.734C348.773 160.957 349.075 161.083 349.391 161.084H357.028C357.343 161.083 357.646 160.957 357.869 160.734C358.092 160.511 358.217 160.208 358.218 159.893V115.725C358.217 115.409 358.092 115.107 357.869 114.884C357.646 114.661 357.343 114.535 357.028 114.534H349.391Z" fill="#001021"/>
<path d="M381.598 160.396H372.826C372.517 160.396 372.218 160.287 371.981 160.09C371.743 159.892 371.582 159.618 371.526 159.314L363.649 118.414C363.612 118.222 363.618 118.025 363.667 117.836C363.715 117.648 363.804 117.472 363.929 117.322C364.053 117.171 364.209 117.05 364.385 116.967C364.562 116.884 364.754 116.841 364.949 116.841H373.722C374.031 116.841 374.329 116.95 374.567 117.147C374.804 117.344 374.965 117.619 375.022 117.922L382.898 158.822C382.937 159.014 382.932 159.212 382.884 159.401C382.837 159.591 382.748 159.768 382.623 159.919C382.498 160.07 382.342 160.191 382.164 160.273C381.987 160.356 381.793 160.398 381.598 160.396V160.396Z" fill="#506CF0"/>
<path d="M346.179 161.345H304.862C304.399 161.344 303.955 161.159 303.628 160.831C303.3 160.504 303.116 160.06 303.115 159.597V151.142C303.116 150.679 303.3 150.235 303.628 149.908C303.955 149.58 304.399 149.395 304.862 149.394H346.179C346.642 149.396 347.086 149.58 347.413 149.908C347.741 150.235 347.925 150.679 347.927 151.142V159.597C347.928 159.827 347.884 160.055 347.796 160.267C347.709 160.48 347.58 160.673 347.417 160.836C347.255 160.998 347.062 161.127 346.849 161.214C346.637 161.302 346.409 161.346 346.179 161.345Z" fill="#E83151"/>
<path d="M191.443 16.343V43.305C191.44 45.8422 190.431 48.2747 188.637 50.0688C186.843 51.8629 184.41 52.8721 181.873 52.875H151.983C153.24 52.8754 154.484 52.6281 155.646 52.1473C156.807 51.6665 157.862 50.9616 158.751 50.0729C159.64 49.1842 160.345 48.129 160.825 46.9678C161.306 45.8065 161.553 44.5619 161.553 43.305V16.343H191.443Z" fill="white"/>
<path d="M181.873 53.137H151.983V52.591C154.449 52.5881 156.812 51.6073 158.556 49.8639C160.299 48.1204 161.28 45.7566 161.283 43.291V16.07H191.719V43.305C191.714 45.9137 190.675 48.414 188.829 50.2572C186.983 52.1005 184.482 53.1362 181.873 53.137V53.137ZM155.217 52.591H181.873C184.339 52.5881 186.702 51.6073 188.446 49.8639C190.189 48.1204 191.17 45.7566 191.173 43.291V16.616H161.829V43.305C161.827 45.3478 161.19 47.3394 160.005 49.0034C158.82 50.6674 157.147 51.9213 155.217 52.591V52.591Z" fill="#001021"/>
<path d="M177.645 13.732H175.231V19.478H177.645V13.732Z" fill="#E83151"/>
<path d="M182.746 26.59C182.392 26.5872 182.053 26.4507 181.796 26.208L180.791 25.323C180.65 25.1914 180.465 25.1182 180.272 25.1182C180.079 25.1182 179.894 25.1914 179.753 25.323L178.803 26.175C178.541 26.4122 178.2 26.5436 177.847 26.5436C177.494 26.5436 177.153 26.4122 176.891 26.175L176.017 25.41C175.876 25.2785 175.691 25.2053 175.498 25.2053C175.306 25.2053 175.12 25.2785 174.98 25.41L174.172 26.131C173.91 26.3682 173.569 26.4996 173.216 26.4996C172.862 26.4996 172.522 26.3682 172.26 26.131L171.594 25.541C171.453 25.4094 171.268 25.3362 171.075 25.3362C170.882 25.3362 170.697 25.4094 170.556 25.541L169.835 26.175C169.573 26.4122 169.232 26.5436 168.879 26.5436C168.526 26.5436 168.185 26.4122 167.923 26.175L167.257 25.585C167.116 25.4534 166.931 25.3802 166.738 25.3802C166.545 25.3802 166.36 25.4534 166.219 25.585C166.155 25.6409 166.071 25.6695 165.986 25.6646C165.901 25.6597 165.822 25.6216 165.765 25.5587C165.707 25.4957 165.677 25.4128 165.68 25.3278C165.684 25.2428 165.72 25.1625 165.782 25.104C166.044 24.8668 166.385 24.7354 166.738 24.7354C167.091 24.7354 167.432 24.8668 167.694 25.104L168.36 25.694C168.501 25.8256 168.686 25.8988 168.879 25.8988C169.072 25.8988 169.257 25.8256 169.398 25.694L170.12 25.06C170.382 24.8226 170.722 24.691 171.076 24.691C171.429 24.691 171.77 24.8226 172.032 25.06L172.698 25.65C172.839 25.7816 173.024 25.8548 173.217 25.8548C173.41 25.8548 173.595 25.7816 173.736 25.65L174.544 24.929C174.806 24.6918 175.147 24.5604 175.5 24.5604C175.853 24.5604 176.194 24.6918 176.456 24.929L177.33 25.694C177.471 25.8256 177.656 25.8988 177.849 25.8988C178.042 25.8988 178.227 25.8256 178.368 25.694L179.318 24.842C179.58 24.6049 179.92 24.4735 180.273 24.4735C180.626 24.4735 180.967 24.6049 181.229 24.842L182.234 25.727C182.374 25.8585 182.56 25.9317 182.752 25.9317C182.945 25.9317 183.13 25.8585 183.271 25.727L184.309 24.798C184.571 24.5606 184.911 24.429 185.265 24.429C185.618 24.429 185.959 24.5606 186.221 24.798C186.255 24.8259 186.283 24.8605 186.303 24.8996C186.324 24.9386 186.336 24.9814 186.339 25.0254C186.342 25.0693 186.336 25.1134 186.322 25.155C186.308 25.1967 186.285 25.235 186.256 25.2676C186.226 25.3003 186.19 25.3265 186.15 25.3449C186.11 25.3632 186.067 25.3732 186.023 25.3743C185.979 25.3753 185.935 25.3674 185.894 25.3511C185.853 25.3347 185.816 25.3102 185.785 25.279C185.644 25.1473 185.458 25.0741 185.265 25.0741C185.072 25.0741 184.887 25.1473 184.746 25.279L183.709 26.208C183.445 26.4475 183.102 26.5832 182.746 26.59V26.59Z" fill="#001021"/>
<path d="M182.746 31.943C182.392 31.9402 182.053 31.8038 181.796 31.561L180.791 30.676C180.65 30.5444 180.465 30.4712 180.272 30.4712C180.079 30.4712 179.894 30.5444 179.753 30.676L178.803 31.528C178.541 31.7652 178.2 31.8966 177.847 31.8966C177.494 31.8966 177.153 31.7652 176.891 31.528L176.017 30.763C175.876 30.6315 175.691 30.5583 175.498 30.5583C175.306 30.5583 175.12 30.6315 174.98 30.763L174.172 31.484C173.91 31.7212 173.569 31.8526 173.216 31.8526C172.862 31.8526 172.522 31.7212 172.26 31.484L171.594 30.894C171.453 30.7624 171.268 30.6892 171.075 30.6892C170.882 30.6892 170.697 30.7624 170.556 30.894L169.835 31.528C169.573 31.7652 169.232 31.8966 168.879 31.8966C168.526 31.8966 168.185 31.7652 167.923 31.528L167.257 30.938C167.116 30.8064 166.931 30.7332 166.738 30.7332C166.545 30.7332 166.36 30.8064 166.219 30.938C166.155 30.9939 166.071 31.0225 165.986 31.0176C165.901 31.0127 165.822 30.9746 165.765 30.9117C165.707 30.8487 165.677 30.7659 165.68 30.6808C165.684 30.5958 165.72 30.5155 165.782 30.457C166.044 30.2198 166.385 30.0884 166.738 30.0884C167.091 30.0884 167.432 30.2198 167.694 30.457L168.36 31.047C168.501 31.1786 168.686 31.2518 168.879 31.2518C169.072 31.2518 169.257 31.1786 169.398 31.047L170.12 30.413C170.382 30.1756 170.722 30.0441 171.076 30.0441C171.429 30.0441 171.77 30.1756 172.032 30.413L172.698 31.003C172.839 31.1346 173.024 31.2078 173.217 31.2078C173.41 31.2078 173.595 31.1346 173.736 31.003L174.544 30.282C174.806 30.0448 175.147 29.9134 175.5 29.9134C175.853 29.9134 176.194 30.0448 176.456 30.282L177.33 31.047C177.471 31.1786 177.656 31.2518 177.849 31.2518C178.042 31.2518 178.227 31.1786 178.368 31.047L179.318 30.195C179.58 29.9578 179.92 29.8265 180.273 29.8265C180.626 29.8265 180.967 29.9578 181.229 30.195L182.234 31.08C182.374 31.2115 182.56 31.2847 182.752 31.2847C182.945 31.2847 183.13 31.2115 183.271 31.08L184.309 30.151C184.571 29.9136 184.911 29.782 185.265 29.782C185.618 29.782 185.959 29.9136 186.221 30.151C186.255 30.179 186.283 30.2135 186.303 30.2526C186.324 30.2916 186.336 30.3345 186.339 30.3784C186.342 30.4223 186.336 30.4664 186.322 30.5081C186.308 30.5497 186.285 30.588 186.256 30.6206C186.226 30.6533 186.19 30.6795 186.15 30.6979C186.11 30.7162 186.067 30.7262 186.023 30.7273C185.979 30.7283 185.935 30.7204 185.894 30.7041C185.853 30.6877 185.816 30.6632 185.785 30.632C185.644 30.5004 185.458 30.4271 185.265 30.4271C185.072 30.4271 184.887 30.5004 184.746 30.632L183.709 31.561C183.45 31.8093 183.104 31.9464 182.746 31.943V31.943Z" fill="#001021"/>
<path d="M182.746 37.307C182.392 37.3042 182.053 37.1677 181.796 36.925L180.791 36.04C180.65 35.9084 180.465 35.8352 180.272 35.8352C180.079 35.8352 179.894 35.9084 179.753 36.04L178.803 36.892C178.541 37.1292 178.2 37.2606 177.847 37.2606C177.494 37.2606 177.153 37.1292 176.891 36.892L176.017 36.127C175.876 35.9955 175.691 35.9223 175.498 35.9223C175.306 35.9223 175.12 35.9955 174.98 36.127L174.172 36.848C173.91 37.0852 173.569 37.2166 173.216 37.2166C172.862 37.2166 172.522 37.0852 172.26 36.848L171.594 36.258C171.453 36.1264 171.268 36.0532 171.075 36.0532C170.882 36.0532 170.697 36.1264 170.556 36.258L169.835 36.892C169.573 37.1292 169.232 37.2606 168.879 37.2606C168.526 37.2606 168.185 37.1292 167.923 36.892L167.257 36.302C167.116 36.1704 166.931 36.0972 166.738 36.0972C166.545 36.0972 166.36 36.1704 166.219 36.302C166.155 36.3579 166.071 36.3865 165.986 36.3816C165.901 36.3766 165.822 36.3386 165.765 36.2757C165.707 36.2127 165.677 36.1298 165.68 36.0448C165.684 35.9598 165.72 35.8794 165.782 35.821C166.044 35.5838 166.385 35.4524 166.738 35.4524C167.091 35.4524 167.432 35.5838 167.694 35.821L168.36 36.411C168.501 36.5426 168.686 36.6158 168.879 36.6158C169.072 36.6158 169.257 36.5426 169.398 36.411L170.12 35.777C170.382 35.5396 170.722 35.408 171.076 35.408C171.429 35.408 171.77 35.5396 172.032 35.777L172.698 36.367C172.839 36.4986 173.024 36.5718 173.217 36.5718C173.41 36.5718 173.595 36.4986 173.736 36.367L174.544 35.646C174.806 35.4088 175.147 35.2774 175.5 35.2774C175.853 35.2774 176.194 35.4088 176.456 35.646L177.33 36.411C177.471 36.5426 177.656 36.6158 177.849 36.6158C178.042 36.6158 178.227 36.5426 178.368 36.411L179.318 35.559C179.58 35.3218 179.92 35.1905 180.273 35.1905C180.626 35.1905 180.967 35.3218 181.229 35.559L182.234 36.444C182.374 36.5755 182.56 36.6487 182.752 36.6487C182.945 36.6487 183.13 36.5755 183.271 36.444L184.309 35.515C184.571 35.2775 184.911 35.146 185.265 35.146C185.618 35.146 185.959 35.2775 186.221 35.515C186.255 35.5429 186.283 35.5775 186.303 35.6165C186.324 35.6556 186.336 35.6984 186.339 35.7423C186.342 35.7863 186.336 35.8304 186.322 35.872C186.308 35.9137 186.285 35.952 186.256 35.9846C186.226 36.0172 186.19 36.0435 186.15 36.0619C186.11 36.0802 186.067 36.0902 186.023 36.0912C185.979 36.0923 185.935 36.0844 185.894 36.0681C185.853 36.0517 185.816 36.0272 185.785 35.996C185.644 35.8641 185.458 35.7907 185.265 35.7907C185.072 35.7907 184.887 35.8641 184.746 35.996L183.709 36.925C183.447 37.1689 183.103 37.3053 182.746 37.307V37.307Z" fill="#001021"/>
<path d="M182.746 42.671C182.392 42.6682 182.053 42.5317 181.796 42.289L180.791 41.404C180.65 41.2724 180.465 41.1992 180.272 41.1992C180.079 41.1992 179.894 41.2724 179.753 41.404L178.803 42.256C178.541 42.4932 178.2 42.6246 177.847 42.6246C177.494 42.6246 177.153 42.4932 176.891 42.256L176.017 41.491C175.876 41.3595 175.691 41.2863 175.498 41.2863C175.306 41.2863 175.12 41.3595 174.98 41.491L174.172 42.212C173.91 42.4492 173.569 42.5806 173.216 42.5806C172.862 42.5806 172.522 42.4492 172.26 42.212L171.594 41.622C171.453 41.4904 171.268 41.4172 171.075 41.4172C170.882 41.4172 170.697 41.4904 170.556 41.622L169.835 42.256C169.573 42.4932 169.232 42.6246 168.879 42.6246C168.526 42.6246 168.185 42.4932 167.923 42.256L167.257 41.666C167.116 41.5344 166.931 41.4612 166.738 41.4612C166.545 41.4612 166.36 41.5344 166.219 41.666C166.155 41.7219 166.071 41.7505 165.986 41.7456C165.901 41.7407 165.822 41.7026 165.765 41.6397C165.707 41.5767 165.677 41.4938 165.68 41.4088C165.684 41.3238 165.72 41.2435 165.782 41.185C166.044 40.9478 166.385 40.8164 166.738 40.8164C167.091 40.8164 167.432 40.9478 167.694 41.185L168.36 41.775C168.501 41.9066 168.686 41.9798 168.879 41.9798C169.072 41.9798 169.257 41.9066 169.398 41.775L170.12 41.141C170.382 40.9036 170.722 40.772 171.076 40.772C171.429 40.772 171.77 40.9036 172.032 41.141L172.698 41.731C172.839 41.8626 173.024 41.9358 173.217 41.9358C173.41 41.9358 173.595 41.8626 173.736 41.731L174.544 41.01C174.806 40.7728 175.147 40.6414 175.5 40.6414C175.853 40.6414 176.194 40.7728 176.456 41.01L177.33 41.775C177.471 41.9066 177.656 41.9798 177.849 41.9798C178.042 41.9798 178.227 41.9066 178.368 41.775L179.318 40.923C179.58 40.6858 179.92 40.5545 180.273 40.5545C180.626 40.5545 180.967 40.6858 181.229 40.923L182.234 41.808C182.374 41.9395 182.56 42.0127 182.752 42.0127C182.945 42.0127 183.13 41.9395 183.271 41.808L184.309 40.88C184.571 40.6426 184.911 40.511 185.265 40.511C185.618 40.511 185.959 40.6426 186.221 40.88C186.255 40.9079 186.283 40.9425 186.303 40.9816C186.324 41.0207 186.336 41.0634 186.339 41.1074C186.342 41.1513 186.336 41.1954 186.322 41.237C186.308 41.2787 186.285 41.317 186.256 41.3496C186.226 41.3822 186.19 41.4085 186.15 41.4268C186.11 41.4452 186.067 41.4552 186.023 41.4563C185.979 41.4573 185.935 41.4494 185.894 41.433C185.853 41.4167 185.816 41.3922 185.785 41.361C185.644 41.2293 185.458 41.1561 185.265 41.1561C185.072 41.1561 184.887 41.2293 184.746 41.361L183.709 42.29C183.444 42.5292 183.102 42.6645 182.746 42.671V42.671Z" fill="#001021"/>
<path d="M222.217 16.343H201.307V37.253H222.217V16.343Z" fill="#506CF0"/>
<path d="M204.4 13.5615L198.875 18.028L200.393 19.9061L205.918 15.4395L204.4 13.5615Z" fill="#001021"/>
<path d="M219.304 13.5549L217.786 15.433L223.31 19.8995L224.829 18.0214L219.304 13.5549Z" fill="#001021"/>
<path d="M217.803 21.303H205.12V22.09H217.803V21.303Z" fill="white"/>
<path d="M217.803 24.679H205.12V25.466H217.803V24.679Z" fill="white"/>
<path d="M217.803 28.066H205.12V28.853H217.803V28.066Z" fill="white"/>
<path d="M217.803 31.441H205.12V32.228H217.803V31.441Z" fill="white"/>
<path d="M302.143 161.346H253.397L262.836 140.491L264.223 137.432H291.316L295.128 145.832L302.143 161.346Z" fill="white"/>
<path d="M302.644 161.673H252.894L264.005 137.093H291.523L295.413 145.693L302.644 161.673ZM253.909 161.017H301.628L294.822 145.963L291.108 137.748H264.43L263.13 140.621L253.909 161.017Z" fill="#506CF0"/>
<path d="M295.128 145.832L262.835 140.49L264.222 137.431H291.315L295.128 145.832Z" fill="#506CF0"/>
<path d="M335.212 137.432H220.492C218.473 137.43 216.537 136.628 215.109 135.2C213.682 133.772 212.879 131.836 212.878 129.817V54.93C212.879 52.9109 213.682 50.975 215.109 49.5472C216.537 48.1194 218.473 47.3166 220.492 47.315H335.212C337.231 47.3166 339.167 48.1194 340.594 49.5472C342.022 50.975 342.824 52.9109 342.826 54.93V129.807C342.825 131.827 342.022 133.764 340.595 135.194C339.168 136.623 337.232 137.428 335.212 137.432Z" fill="white"/>
<path d="M335.212 137.76H220.492C218.386 137.758 216.367 136.921 214.878 135.432C213.389 133.943 212.552 131.924 212.55 129.818V54.929C212.552 52.8232 213.389 50.8042 214.878 49.3152C216.367 47.8262 218.386 46.9889 220.492 46.987H335.212C337.317 46.9891 339.336 47.8266 340.825 49.3156C342.314 50.8045 343.151 52.8234 343.153 54.929V129.807C343.151 131.914 342.315 133.934 340.826 135.425C339.338 136.915 337.318 137.755 335.212 137.76V137.76ZM220.492 47.643C218.56 47.6446 216.707 48.4129 215.341 49.7791C213.975 51.1454 213.207 52.9979 213.206 54.93V129.818C213.207 131.75 213.975 133.603 215.341 134.969C216.707 136.335 218.56 137.103 220.492 137.105H335.212C337.145 137.101 338.999 136.331 340.365 134.962C341.731 133.593 342.498 131.739 342.498 129.805V54.929C342.497 52.9969 341.729 51.1444 340.362 49.7781C338.996 48.4119 337.144 47.6436 335.212 47.642L220.492 47.643Z" fill="#506CF0"/>
<path d="M300.831 132.134H254.839C254.307 132.134 253.779 132.029 253.288 131.826C252.796 131.622 252.349 131.324 251.973 130.947C251.596 130.571 251.298 130.124 251.094 129.632C250.89 129.14 250.786 128.613 250.786 128.081V122.52C250.786 121.988 250.89 121.461 251.094 120.969C251.298 120.477 251.596 120.03 251.973 119.654C252.349 119.277 252.796 118.979 253.288 118.775C253.779 118.572 254.307 118.467 254.839 118.467H300.831C301.363 118.467 301.89 118.572 302.382 118.775C302.874 118.979 303.321 119.277 303.697 119.654C304.073 120.03 304.372 120.477 304.575 120.969C304.779 121.461 304.884 121.988 304.884 122.52V128.081C304.882 129.155 304.455 130.185 303.695 130.945C302.935 131.705 301.905 132.132 300.831 132.134Z" fill="#506CF0"/>
<path d="M288.759 128.419H285.659C285.287 128.419 284.931 128.271 284.669 128.009C284.406 127.746 284.259 127.39 284.259 127.019V124.597C284.259 124.226 284.406 123.87 284.669 123.607C284.931 123.345 285.287 123.197 285.659 123.197H288.759C289.13 123.197 289.486 123.345 289.749 123.607C290.011 123.87 290.159 124.226 290.159 124.597V127.022C290.159 127.206 290.123 127.388 290.053 127.558C289.983 127.728 289.88 127.882 289.75 128.012C289.619 128.142 289.465 128.244 289.295 128.314C289.125 128.384 288.943 128.42 288.759 128.419Z" fill="white"/>
<path d="M292.715 128.015L291.567 127.283C291.409 127.185 291.279 127.048 291.19 126.886C291.1 126.723 291.053 126.541 291.054 126.355V125.262C291.053 125.076 291.1 124.894 291.19 124.731C291.279 124.569 291.409 124.432 291.567 124.334L292.715 123.602C292.775 123.562 292.846 123.539 292.919 123.535C292.991 123.532 293.064 123.549 293.128 123.583C293.192 123.618 293.245 123.67 293.282 123.733C293.319 123.795 293.338 123.867 293.337 123.94V127.655C293.342 127.73 293.326 127.804 293.291 127.871C293.256 127.937 293.203 127.992 293.138 128.029C293.073 128.067 292.999 128.085 292.924 128.083C292.849 128.08 292.777 128.057 292.715 128.015V128.015Z" fill="white"/>
<path d="M277.005 127.196H276.721C276.174 127.195 275.649 126.977 275.262 126.59C274.875 126.203 274.657 125.678 274.656 125.131V123.922C274.656 123.869 274.677 123.818 274.715 123.781C274.752 123.743 274.803 123.722 274.856 123.722H278.856C278.909 123.722 278.96 123.743 278.997 123.781C279.035 123.818 279.056 123.869 279.056 123.922V125.135C279.059 125.406 279.008 125.674 278.906 125.925C278.804 126.176 278.654 126.404 278.463 126.596C278.272 126.788 278.044 126.939 277.794 127.042C277.544 127.146 277.276 127.198 277.005 127.196ZM275.049 124.115V125.131C275.049 125.574 275.225 126 275.539 126.313C275.852 126.627 276.278 126.803 276.721 126.803H277.005C277.224 126.803 277.442 126.76 277.645 126.676C277.847 126.592 278.032 126.468 278.187 126.313C278.342 126.158 278.465 125.974 278.549 125.771C278.633 125.568 278.676 125.351 278.676 125.131V124.115H275.049Z" fill="white"/>
<path d="M276.866 129.447C276.813 129.447 276.762 129.426 276.725 129.388C276.687 129.351 276.666 129.3 276.666 129.247V127.779C276.661 127.75 276.662 127.72 276.669 127.692C276.676 127.663 276.69 127.637 276.709 127.614C276.727 127.592 276.751 127.573 276.777 127.561C276.804 127.548 276.833 127.542 276.863 127.542C276.892 127.542 276.921 127.548 276.948 127.561C276.974 127.573 276.998 127.592 277.017 127.614C277.035 127.637 277.049 127.663 277.056 127.692C277.064 127.72 277.065 127.75 277.059 127.779V129.254C277.057 129.305 277.036 129.353 277.001 129.388C276.965 129.424 276.917 129.445 276.866 129.447V129.447Z" fill="white"/>
<path d="M277.89 129.446H275.85C275.821 129.451 275.791 129.45 275.763 129.443C275.734 129.436 275.708 129.422 275.685 129.403C275.662 129.385 275.644 129.361 275.632 129.335C275.619 129.308 275.613 129.279 275.613 129.249C275.613 129.22 275.619 129.191 275.632 129.164C275.644 129.138 275.662 129.114 275.685 129.095C275.708 129.077 275.734 129.063 275.763 129.056C275.791 129.048 275.821 129.048 275.85 129.053H277.893C277.939 129.062 277.98 129.086 278.01 129.122C278.039 129.158 278.056 129.203 278.056 129.249C278.056 129.296 278.039 129.341 278.01 129.377C277.98 129.413 277.939 129.437 277.893 129.446H277.89Z" fill="white"/>
<path d="M276.951 126.279H276.765C276.611 126.28 276.459 126.25 276.317 126.192C276.174 126.133 276.045 126.047 275.937 125.938C275.828 125.83 275.742 125.701 275.683 125.558C275.625 125.416 275.595 125.264 275.596 125.11V122.739C275.595 122.585 275.625 122.433 275.683 122.291C275.742 122.149 275.828 122.019 275.937 121.911C276.045 121.802 276.174 121.716 276.317 121.657C276.459 121.599 276.611 121.569 276.765 121.57H276.951C277.105 121.569 277.257 121.599 277.399 121.658C277.541 121.716 277.67 121.802 277.779 121.911C277.888 122.02 277.974 122.149 278.032 122.291C278.091 122.433 278.121 122.585 278.12 122.739V125.11C278.123 125.264 278.094 125.417 278.036 125.56C277.978 125.703 277.893 125.833 277.783 125.942C277.674 126.051 277.544 126.137 277.401 126.195C277.258 126.253 277.105 126.282 276.951 126.279V126.279Z" fill="white"/>
<path d="M264.969 124.814L264.958 124.825C264.9 124.902 264.859 124.99 264.835 125.084C264.812 125.178 264.807 125.275 264.821 125.37C264.836 125.466 264.869 125.558 264.918 125.64C264.968 125.723 265.034 125.795 265.112 125.852L266.312 126.813C266.46 126.939 266.65 127.003 266.844 126.99C267.038 126.978 267.219 126.891 267.35 126.747L267.361 126.736C267.425 126.665 267.503 126.608 267.59 126.568C267.676 126.527 267.77 126.505 267.865 126.5C267.961 126.496 268.056 126.511 268.146 126.544C268.235 126.577 268.318 126.627 268.388 126.692L269.469 127.665C269.548 127.73 269.612 127.811 269.656 127.904C269.7 127.996 269.723 128.097 269.723 128.2C269.723 128.302 269.7 128.404 269.656 128.496C269.612 128.589 269.548 128.67 269.469 128.735C268.87 129.093 268.169 129.241 267.476 129.156C266.784 129.071 266.139 128.757 265.645 128.265L263.821 126.79C263.237 126.406 262.796 125.841 262.567 125.181C262.338 124.521 262.333 123.804 262.554 123.141C262.599 123.049 262.664 122.968 262.744 122.905C262.825 122.843 262.919 122.799 263.019 122.778C263.119 122.757 263.222 122.759 263.322 122.784C263.421 122.809 263.513 122.856 263.591 122.922L264.783 123.785C264.943 123.898 265.052 124.069 265.086 124.261C265.121 124.454 265.079 124.652 264.969 124.814Z" fill="white"/>
<path d="M268.146 125.568C268.095 125.57 268.045 125.551 268.008 125.516C267.97 125.482 267.948 125.434 267.946 125.383C267.917 124.93 267.711 124.508 267.371 124.208C267.031 123.907 266.585 123.755 266.133 123.783C266.081 123.785 266.03 123.767 265.991 123.732C265.952 123.698 265.928 123.649 265.925 123.597C265.923 123.545 265.941 123.494 265.976 123.455C266.01 123.416 266.059 123.393 266.111 123.389C266.665 123.354 267.211 123.54 267.629 123.907C268.046 124.273 268.302 124.791 268.339 125.345C268.341 125.373 268.338 125.401 268.329 125.427C268.32 125.454 268.306 125.478 268.287 125.498C268.268 125.519 268.245 125.535 268.22 125.546C268.194 125.557 268.167 125.563 268.139 125.563L268.146 125.568Z" fill="white"/>
<path d="M269.368 125.372C269.342 125.373 269.317 125.369 269.293 125.36C269.27 125.352 269.248 125.338 269.229 125.321C269.211 125.304 269.195 125.283 269.185 125.26C269.174 125.236 269.169 125.211 269.168 125.186C269.115 124.403 268.754 123.673 268.165 123.156C267.575 122.638 266.805 122.374 266.022 122.422C265.97 122.424 265.919 122.406 265.88 122.371C265.841 122.336 265.818 122.288 265.814 122.236C265.812 122.184 265.83 122.133 265.865 122.094C265.899 122.055 265.948 122.032 266 122.028C266.885 121.969 267.758 122.263 268.426 122.847C269.094 123.431 269.502 124.257 269.562 125.142C269.566 125.171 269.564 125.2 269.556 125.227C269.548 125.255 269.534 125.281 269.515 125.303C269.496 125.324 269.472 125.342 269.446 125.354C269.419 125.365 269.391 125.371 269.362 125.371L269.368 125.372Z" fill="white"/>
<path d="M313.449 54.646C313.127 54.6458 312.812 54.5501 312.545 54.3711C312.277 54.1921 312.069 53.9378 311.945 53.6403C311.822 53.3428 311.79 53.0155 311.853 52.6998C311.916 52.384 312.071 52.094 312.299 51.8664C312.527 51.6389 312.817 51.4839 313.133 51.4212C313.448 51.3585 313.776 51.3908 314.073 51.514C314.371 51.6372 314.625 51.8459 314.804 52.1136C314.982 52.3813 315.078 52.6961 315.078 53.018C315.077 53.4496 314.905 53.8632 314.6 54.1683C314.294 54.4734 313.88 54.6452 313.449 54.646V54.646ZM313.449 51.926C313.235 51.926 313.026 51.9895 312.848 52.1084C312.67 52.2273 312.531 52.3964 312.449 52.5941C312.367 52.7919 312.346 53.0095 312.388 53.2194C312.43 53.4294 312.533 53.6221 312.684 53.7734C312.836 53.9247 313.028 54.0277 313.238 54.0693C313.448 54.111 313.666 54.0894 313.864 54.0073C314.061 53.9253 314.23 53.7865 314.349 53.6084C314.468 53.4303 314.531 53.221 314.531 53.007C314.532 52.8647 314.504 52.7237 314.45 52.5921C314.396 52.4606 314.316 52.341 314.215 52.2404C314.115 52.1398 313.995 52.0601 313.864 52.006C313.732 51.9519 313.591 51.9243 313.449 51.925V51.926Z" fill="#001021"/>
<path d="M318.989 54.646C318.667 54.646 318.352 54.5505 318.085 54.3716C317.817 54.1927 317.608 53.9385 317.485 53.641C317.362 53.3435 317.33 53.0162 317.392 52.7004C317.455 52.3846 317.61 52.0945 317.838 51.8668C318.066 51.6391 318.356 51.4841 318.671 51.4213C318.987 51.3584 319.315 51.3907 319.612 51.5139C319.91 51.6371 320.164 51.8458 320.343 52.1135C320.522 52.3812 320.617 52.696 320.617 53.018C320.616 53.4495 320.444 53.8629 320.139 54.168C319.834 54.4731 319.42 54.6449 318.989 54.646V54.646ZM318.989 51.926C318.775 51.926 318.566 51.9895 318.388 52.1084C318.21 52.2273 318.071 52.3964 317.989 52.5941C317.907 52.7919 317.886 53.0095 317.928 53.2195C317.97 53.4294 318.073 53.6222 318.224 53.7734C318.376 53.9247 318.569 54.0277 318.779 54.0693C318.989 54.111 319.206 54.0894 319.404 54.0074C319.601 53.9253 319.77 53.7865 319.889 53.6084C320.008 53.4303 320.071 53.221 320.071 53.007C320.072 52.8647 320.044 52.7237 319.99 52.5921C319.936 52.4606 319.856 52.341 319.756 52.2404C319.655 52.1398 319.535 52.0602 319.404 52.006C319.272 51.9519 319.131 51.9243 318.989 51.925V51.926Z" fill="#001021"/>
<path d="M324.547 54.646C324.225 54.6458 323.91 54.5501 323.643 54.3711C323.375 54.1921 323.167 53.9378 323.044 53.6403C322.921 53.3428 322.888 53.0155 322.951 52.6998C323.014 52.384 323.169 52.094 323.397 51.8664C323.625 51.6389 323.915 51.4839 324.231 51.4212C324.546 51.3585 324.874 51.3908 325.171 51.514C325.468 51.6372 325.723 51.8459 325.902 52.1136C326.08 52.3813 326.176 52.6961 326.176 53.018C326.175 53.4496 326.003 53.8632 325.698 54.1683C325.392 54.4734 324.979 54.6452 324.547 54.646V54.646ZM324.547 51.926C324.333 51.926 324.124 51.9895 323.946 52.1084C323.768 52.2273 323.629 52.3964 323.547 52.5941C323.465 52.7919 323.444 53.0095 323.486 53.2194C323.528 53.4294 323.631 53.6221 323.782 53.7734C323.934 53.9247 324.126 54.0277 324.336 54.0693C324.546 54.111 324.764 54.0894 324.962 54.0073C325.159 53.9253 325.328 53.7865 325.447 53.6084C325.566 53.4303 325.629 53.221 325.629 53.007C325.629 52.8647 325.602 52.7237 325.548 52.5921C325.494 52.4606 325.414 52.341 325.313 52.2404C325.213 52.1398 325.093 52.0601 324.962 52.006C324.83 51.9519 324.689 51.9243 324.547 51.925V51.926Z" fill="#001021"/>
<path d="M319.655 113.683H236.038C234.813 113.682 233.637 113.195 232.771 112.329C231.905 111.462 231.418 110.287 231.417 109.062V64.292C231.417 63.0665 231.904 61.8913 232.771 61.0248C233.637 60.1582 234.813 59.6713 236.038 59.671H319.655C320.88 59.6716 322.055 60.1586 322.922 61.0251C323.788 61.8916 324.275 63.0667 324.275 64.292V109.061C324.271 110.285 323.783 111.458 322.917 112.324C322.052 113.19 320.879 113.679 319.655 113.683Z" fill="#506CF0"/>
<path d="M302.633 113.683H251.594C254.105 110.234 257.39 107.422 261.184 105.472C264.978 103.521 269.177 102.488 273.443 102.453H280.784C285.05 102.49 289.247 103.524 293.042 105.475C296.836 107.425 300.12 110.236 302.633 113.683V113.683Z" fill="#001021"/>
<path d="M274.408 111.389H275.555C277.954 111.388 280.254 110.434 281.95 108.738C283.646 107.042 284.599 104.742 284.6 102.343V95.919C284.599 95.9047 284.593 95.8911 284.583 95.8809C284.573 95.8708 284.559 95.8647 284.545 95.864H267.765C267.751 95.865 267.737 95.8711 267.728 95.8812C267.718 95.8914 267.712 95.9048 267.711 95.919V104.746C267.724 106.513 268.436 108.203 269.69 109.448C270.945 110.692 272.641 111.39 274.408 111.389V111.389Z" fill="white"/>
<path d="M267.741 95.865V104.889C267.982 109.849 280.341 107.904 284.041 95.876H267.741V95.865Z" fill="#001021"/>
<path d="M289.481 91.997C289.481 92.5081 289.379 93.014 289.183 93.4858C288.987 93.9577 288.699 94.3861 288.337 94.7464C287.974 95.1067 287.544 95.3919 287.072 95.5856C286.599 95.7793 286.092 95.8776 285.581 95.875H281.921C281.26 97.6165 280.084 99.1157 278.551 100.173C277.017 101.231 275.198 101.797 273.335 101.796H270.484C268.581 101.795 266.756 101.038 265.41 99.6925C264.064 98.3469 263.307 96.5222 263.306 94.619V83.399C267.414 83.749 270.889 80.439 271.019 80.308C270.965 80.494 268.889 86.36 273.609 86.688C278.309 87.005 279.847 83.618 279.901 83.488C279.901 83.619 279.923 88.153 283.637 88.393H285.582C286.078 88.3607 286.575 88.4295 287.043 88.5954C287.511 88.7613 287.941 89.0207 288.305 89.3578C288.67 89.695 288.962 90.1028 289.165 90.5565C289.367 91.0102 289.474 91.5004 289.481 91.997V91.997Z" fill="white"/>
<path d="M283.985 88.392H283.668C279.968 88.152 279.933 83.64 279.933 83.487C279.878 83.618 278.305 87.005 273.64 86.687C268.94 86.37 270.997 80.493 271.051 80.307C270.92 80.416 267.446 83.748 263.339 83.399C262.372 83.3216 261.433 83.0386 260.585 82.569C254.577 79.314 258.455 72.617 264.343 72.54C269.043 72.485 271.043 75.053 271.043 75.053C271.194 74.3185 271.491 73.6216 271.915 73.0033C272.34 72.385 272.883 71.8578 273.514 71.4527C274.146 71.0476 274.851 70.7728 275.59 70.6444C276.329 70.516 277.086 70.5366 277.817 70.705C283.585 71.612 282.536 76.713 282.536 76.713C282.536 76.713 287.364 74.473 290.03 78.603C293.183 83.454 288.464 88.392 283.985 88.392Z" fill="#E83151"/>
<path d="M268.222 93.2759H268.113C268.061 93.2651 268.012 93.244 267.969 93.2137C267.926 93.1835 267.889 93.1448 267.86 93.1C267.832 93.0551 267.814 93.0051 267.806 92.9528C267.798 92.9006 267.8 92.8472 267.813 92.796C268.169 91.1743 267.993 89.4813 267.313 87.967C267.001 87.3231 266.497 86.7921 265.87 86.4476C265.242 86.103 264.524 85.962 263.813 86.0439C263.71 86.0595 263.606 86.0354 263.521 85.9764C263.435 85.9175 263.376 85.8283 263.354 85.727C263.343 85.6759 263.343 85.6231 263.353 85.5718C263.363 85.5206 263.384 85.472 263.413 85.429C263.443 85.386 263.481 85.3495 263.526 85.3218C263.57 85.2941 263.619 85.2758 263.671 85.2679C264.546 85.1548 265.435 85.317 266.214 85.7321C266.993 86.1471 267.624 86.7943 268.018 87.584C268.809 89.2634 269.017 91.1591 268.608 92.97C268.577 93.051 268.525 93.1223 268.457 93.1761C268.389 93.23 268.308 93.2645 268.222 93.2759V93.2759Z" fill="#001021"/>
<path d="M269.63 96.367C269.143 96.3714 268.658 96.3088 268.188 96.1811C268.134 96.1721 268.082 96.152 268.036 96.1222C267.99 96.0923 267.95 96.0533 267.92 96.0075C267.89 95.9618 267.869 95.9102 267.859 95.8562C267.85 95.8021 267.851 95.7466 267.864 95.6932C267.877 95.6398 267.901 95.5896 267.934 95.5457C267.967 95.5019 268.009 95.4652 268.056 95.4382C268.104 95.4112 268.157 95.3943 268.212 95.3886C268.266 95.3829 268.322 95.3885 268.374 95.4051V95.4051C268.505 95.4271 271.553 96.2351 272.667 93.8861C272.69 93.8386 272.722 93.7962 272.761 93.7612C272.801 93.7262 272.847 93.6993 272.897 93.6822C272.946 93.665 272.999 93.6578 273.052 93.661C273.104 93.6643 273.156 93.6778 273.203 93.701C273.253 93.7209 273.298 93.7514 273.335 93.7902C273.372 93.829 273.4 93.8754 273.418 93.9261C273.436 93.9768 273.442 94.0308 273.437 94.0843C273.432 94.1377 273.416 94.1895 273.389 94.236C273.046 94.9251 272.505 95.4959 271.835 95.8756C271.165 96.2552 270.397 96.4263 269.63 96.367V96.367Z" fill="#001021"/>
<path d="M273.498 90.074C273.806 90.074 274.055 89.5117 274.055 88.818C274.055 88.1243 273.806 87.562 273.498 87.562C273.19 87.562 272.941 88.1243 272.941 88.818C272.941 89.5117 273.19 90.074 273.498 90.074Z" fill="#001021"/>
<path d="M265.206 89.856C265.472 89.856 265.687 89.3913 265.687 88.818C265.687 88.2447 265.472 87.78 265.206 87.78C264.94 87.78 264.725 88.2447 264.725 88.818C264.725 89.3913 264.94 89.856 265.206 89.856Z" fill="#001021"/>
<path d="M283.577 93.465C283.472 93.4625 283.371 93.4195 283.297 93.345C283.222 93.2705 283.18 93.1703 283.177 93.065C283.179 92.2457 283.505 91.4607 284.084 90.8813C284.664 90.3019 285.449 89.9754 286.268 89.973C286.375 89.973 286.478 90.0156 286.553 90.0913C286.629 90.1671 286.672 90.2698 286.672 90.377C286.672 90.4841 286.629 90.5869 286.553 90.6627C286.478 90.7385 286.375 90.781 286.268 90.781C285.967 90.781 285.668 90.8404 285.39 90.9557C285.112 91.071 284.859 91.2399 284.646 91.453C284.433 91.666 284.264 91.9189 284.149 92.1972C284.034 92.4755 283.975 92.7738 283.975 93.075C283.975 93.1268 283.964 93.1781 283.944 93.2258C283.924 93.2735 283.894 93.3168 283.857 93.3531C283.82 93.3893 283.776 93.4179 283.728 93.4371C283.68 93.4563 283.629 93.4658 283.577 93.465V93.465Z" fill="#001021"/>
<path d="M320.506 318.834C320.157 318.725 319.961 318.681 319.961 318.681L315.7 332.643L299.651 328.437C299.52 328.317 299.451 328.251 299.451 328.251C299.451 328.251 234.472 277.32 231.051 252.882C227.651 228.444 254.867 205.251 254.867 205.251C254.867 205.251 312.91 314.966 320.098 318.551C320.245 318.628 320.382 318.724 320.506 318.834V318.834Z" fill="#A0505A"/>
<path d="M268.614 230.914C266.582 241.795 259.437 263.841 252.042 285.165C241.095 273.365 232.257 261.465 231.055 252.865C228.893 237.374 239.041 222.374 246.765 213.482C249.648 211.162 252.717 209.083 255.941 207.266C257.962 211.062 262.639 219.847 268.614 230.914Z" fill="#73325A"/>
<path d="M356.973 328.242L333.103 343.558L326.177 342.52L319.809 346.562L321.872 350.789L311.372 357.531C307.327 353.879 304.154 349.364 302.089 344.321C300.024 339.277 299.119 333.834 299.442 328.394L315.686 332.655L319.947 318.694C319.947 318.694 334.532 322.954 345.303 322.594C356.074 322.234 356.973 328.242 356.973 328.242Z" fill="white"/>
<path d="M311.35 357.924L311.166 357.76C305.452 352.613 301.504 345.798 299.881 338.281C299.125 335.032 298.867 331.687 299.116 328.361L299.159 327.989L315.459 332.273L319.719 318.3L320.025 318.387C320.166 318.43 334.686 322.626 345.272 322.276C350.964 322.076 353.912 323.676 355.389 325.051C356.339 325.87 357.002 326.972 357.278 328.196L357.311 328.404L357.136 328.513L333.167 343.894L326.241 342.857L320.221 346.68L322.276 350.898L311.35 357.924ZM299.727 328.81C299.55 331.949 299.815 335.097 300.514 338.162C302.108 345.447 305.911 352.062 311.405 357.105L321.445 350.659L319.381 346.432L326.11 342.17L333.026 343.21L356.59 328.079C356.28 327.074 355.698 326.174 354.908 325.479C353.52 324.212 350.723 322.737 345.295 322.912C335.473 323.25 322.331 319.701 320.145 319.089L315.885 333.039L299.727 328.81Z" fill="#001021"/>
<path d="M329.357 321.129C328.883 321.11 328.433 320.919 328.089 320.593C326.953 319.42 326.141 317.973 325.73 316.393C325.177 314.874 324.99 313.246 325.184 311.641C325.391 310.713 325.872 310.395 326.244 310.297C326.421 310.25 326.607 310.244 326.786 310.28C326.966 310.316 327.135 310.392 327.28 310.504C329.127 311.794 329.946 318.381 330.132 320.162C332.645 318.49 335.114 311.99 335.147 311.924L335.759 312.154C335.639 312.47 332.842 319.823 329.914 321.025C329.736 321.092 329.547 321.128 329.357 321.129V321.129ZM326.557 310.914C326.509 310.916 326.462 310.923 326.415 310.935C326.132 311.011 325.934 311.296 325.825 311.787C325.335 313.987 326.863 318.725 328.502 320.101C328.629 320.235 328.785 320.338 328.959 320.4C329.133 320.463 329.319 320.484 329.502 320.462C329.262 318.07 328.377 312.062 326.902 311.034C326.804 310.957 326.684 310.915 326.56 310.914H326.557Z" fill="#001021"/>
<path d="M318.017 344.116H317.917L301.923 343.865L301.934 343.21L317.84 343.46L325.793 338.697L333.332 339.91L355.814 325.871L356.163 326.429L333.463 340.596L325.926 339.385L318.017 344.116Z" fill="#001021"/>
<path d="M326.209 319.889L324.722 326.812L325.363 326.95L326.849 320.026L326.209 319.889Z" fill="#001021"/>
<path d="M329.435 320.669L327.948 327.592L328.589 327.73L330.075 320.806L329.435 320.669Z" fill="#001021"/>
<path d="M332.819 321.231L331.332 328.154L331.973 328.292L333.459 321.368L332.819 321.231Z" fill="#001021"/>
<path d="M249.354 199.921C249.354 199.921 258.913 204.379 258.913 220.721C258.913 236.521 222.436 333.266 222.436 333.266L211.216 342.781L199.822 330.306C205.393 325.021 189.411 229.341 249.354 199.921Z" fill="#A0505A"/>
<path d="M248.339 361.321L219.979 361.344L214.713 356.734L207.164 356.69L206.618 361.355L195.497 361.366C189.444 342.543 199.878 330.285 199.878 330.285L211.196 342.75L222.496 333.25C222.496 333.25 232.296 344.743 241.548 350.25C250.83 355.771 248.339 361.321 248.339 361.321Z" fill="white"/>
<path d="M195.259 361.704L195.182 361.474C193.817 357.309 193.182 352.941 193.303 348.56C193.411 345.189 194.017 341.853 195.103 338.66C196.103 335.557 197.633 332.652 199.626 330.072L199.867 329.789L211.218 342.298L222.525 332.798L222.733 333.049C222.833 333.158 232.609 344.564 241.709 349.983C246.603 352.889 248.231 355.827 248.734 357.783C249.086 358.99 249.051 360.278 248.634 361.464L248.546 361.664L219.846 361.685L214.58 357.075L207.446 357.043L206.899 361.708L195.259 361.704ZM199.902 330.804C198.096 333.272 196.688 336.007 195.729 338.911C193.354 346.098 193.361 353.86 195.751 361.043L206.337 361.032L206.884 356.368L214.848 356.411L220.114 361.021L248.125 361C248.405 359.985 248.401 358.913 248.113 357.9C247.633 356.076 246.071 353.324 241.395 350.548C232.95 345.533 223.959 335.427 222.473 333.723L211.173 343.218L199.902 330.804Z" fill="#001021"/>
<path d="M230.073 340.652C229.69 340.689 229.305 340.62 228.959 340.452C228.777 340.325 228.637 340.148 228.555 339.942C228.474 339.736 228.454 339.511 228.5 339.294C228.621 336.781 232.029 330.719 234.859 329.516C235.222 329.326 235.633 329.249 236.04 329.296C236.447 329.343 236.831 329.511 237.141 329.779C237.377 329.973 237.562 330.221 237.68 330.503C237.798 330.784 237.846 331.09 237.819 331.394C237.611 334.366 231.254 338.824 229.549 339.971C231.34 340.31 238.441 338.497 242.768 337.196L242.954 337.819C242.922 337.83 239.906 338.737 236.716 339.513C234.548 340.127 232.321 340.509 230.073 340.652V340.652ZM235.852 329.945C235.594 329.95 235.341 330.009 235.109 330.12C233.963 330.612 232.498 332.174 231.198 334.305C230.182 335.824 229.487 337.533 229.155 339.33V339.45C231.635 337.789 236.999 333.75 237.163 331.35C237.183 331.148 237.153 330.945 237.074 330.758C236.996 330.571 236.873 330.407 236.715 330.28C236.48 330.063 236.171 329.944 235.852 329.945Z" fill="#001021"/>
<path d="M248.568 358.36H222.283L216.428 353.444H207.219L193.825 344.999L194.175 344.453L207.405 352.788H216.669L222.524 357.704H248.568V358.36Z" fill="#001021"/>
<path d="M226.243 337.013L221.238 342.019L221.701 342.482L226.707 337.477L226.243 337.013Z" fill="#001021"/>
<path d="M228.539 339.427L223.534 344.433L223.997 344.896L229.002 339.891L228.539 339.427Z" fill="#001021"/>
<path d="M231.073 341.717L226.067 346.723L226.53 347.186L231.536 342.181L231.073 341.717Z" fill="#001021"/>
<path d="M249.355 199.916C226.817 210.971 215.008 231.416 208.755 252.879H140.355C136.255 252.88 132.207 251.963 128.507 250.195C124.808 248.428 121.55 245.855 118.975 242.665C116.399 239.476 114.569 235.75 113.62 231.761C112.671 227.773 112.627 223.622 113.491 219.614L118.505 196.314H237.431C241.676 196.296 245.829 197.551 249.355 199.916V199.916Z" fill="#506CF0"/>
<path d="M198.577 222.262L223.201 222.207L219.552 228.194L198.577 222.262Z" fill="#A0505A"/>
<path d="M223.354 222.551H160.788C158.104 222.55 155.453 221.95 153.03 220.796C150.606 219.642 148.471 217.962 146.778 215.879C145.085 213.796 143.878 211.361 143.244 208.753C142.61 206.145 142.565 203.428 143.113 200.8L144.063 196.233C144.083 196.152 144.134 196.082 144.205 196.038C144.276 195.993 144.361 195.978 144.443 195.995C144.524 196.012 144.597 196.06 144.644 196.128C144.691 196.197 144.71 196.282 144.697 196.364L143.747 200.93C143.219 203.462 143.261 206.08 143.872 208.593C144.483 211.106 145.646 213.452 147.278 215.459C148.909 217.466 150.967 219.084 153.302 220.195C155.638 221.307 158.192 221.884 160.778 221.884H223.005C229.79 212.351 238.837 204.653 249.334 199.484C249.373 199.465 249.415 199.455 249.458 199.452C249.501 199.45 249.543 199.456 249.584 199.47C249.625 199.485 249.662 199.507 249.694 199.535C249.726 199.564 249.752 199.599 249.771 199.637C249.789 199.676 249.8 199.718 249.802 199.761C249.804 199.804 249.798 199.847 249.784 199.888C249.77 199.928 249.748 199.965 249.719 199.997C249.69 200.029 249.656 200.055 249.617 200.074C239.166 205.223 230.166 212.898 223.431 222.404L223.354 222.551Z" fill="white"/>
<path d="M208.857 253.201C208.827 253.204 208.797 253.2 208.769 253.19C208.728 253.178 208.69 253.159 208.657 253.132C208.624 253.106 208.597 253.073 208.576 253.035C208.556 252.998 208.543 252.958 208.539 252.915C208.535 252.873 208.539 252.831 208.551 252.79C210.948 244.271 214.389 236.081 218.798 228.407L198.489 222.584C198.407 222.559 198.338 222.503 198.297 222.428C198.256 222.353 198.246 222.265 198.269 222.182C198.291 222.1 198.346 222.029 198.419 221.986C198.493 221.943 198.581 221.93 198.664 221.95L219.782 228.013L219.563 228.374C215.078 236.105 211.584 244.37 209.163 252.974C209.143 253.04 209.103 253.098 209.048 253.138C208.993 253.179 208.926 253.201 208.857 253.201V253.201Z" fill="white"/>
<path d="M102.55 133.699L115.081 182.838H91.7019C88.5855 182.838 85.5216 182.035 82.8064 180.505C80.0911 178.976 77.8164 176.771 76.2019 174.106C74.5874 171.44 73.6877 168.403 73.5898 165.288C73.4919 162.173 74.199 159.086 75.643 156.324L93.592 121.999C96.0844 117.233 99.8348 113.24 104.436 110.455C109.037 107.67 114.313 106.198 119.692 106.199H123.931C120.57 106.197 117.253 106.963 114.233 108.439C111.213 109.915 108.571 112.061 106.508 114.715C104.445 117.368 103.016 120.458 102.33 123.748C101.644 127.039 101.719 130.442 102.55 133.699Z" fill="#E83151"/>
<path d="M246.787 120.947C254.15 120.947 260.279 119.975 261.765 118.598L238.922 168.141C237.309 171.637 234.919 174.719 231.935 177.153C228.951 179.586 225.451 181.306 221.702 182.183C217.952 183.059 214.052 183.069 210.299 182.21C206.545 181.352 203.037 179.649 200.041 177.23L185.641 165.606C185.641 165.606 184.21 174.04 173.974 176.192V196.292H118.515L102.543 133.692C101.714 130.435 101.639 127.032 102.325 123.742C103.011 120.452 104.439 117.362 106.5 114.708C108.562 112.054 111.202 109.906 114.22 108.427C117.238 106.949 120.554 106.179 123.915 106.177H162.755C166.149 106.173 169.53 106.598 172.817 107.444C181.833 109.737 189.798 115.035 195.398 122.465L214.374 147.646L231.427 117.846C231.427 117.868 231.416 117.911 231.416 117.934C231.427 119.658 238.321 120.947 246.787 120.947Z" fill="#E83151"/>
<path d="M114.675 183.568C114.601 183.568 114.53 183.543 114.473 183.498C114.415 183.452 114.375 183.389 114.358 183.317L102.09 133.785C102.07 133.701 102.084 133.612 102.129 133.538C102.174 133.465 102.246 133.412 102.33 133.392C102.414 133.371 102.503 133.385 102.577 133.43C102.651 133.475 102.704 133.548 102.724 133.632L114.992 183.164C115.002 183.206 115.004 183.249 114.997 183.291C114.991 183.333 114.976 183.374 114.953 183.41C114.931 183.447 114.902 183.479 114.867 183.504C114.833 183.529 114.794 183.547 114.752 183.557C114.73 183.555 114.708 183.568 114.675 183.568Z" fill="white"/>
<path d="M185.773 166.59C185.728 166.59 185.684 166.581 185.642 166.564C185.601 166.547 185.564 166.522 185.532 166.49L174.632 154.89C174.6 154.86 174.575 154.823 174.558 154.783C174.54 154.742 174.532 154.699 174.532 154.655C174.532 154.611 174.541 154.567 174.558 154.527C174.575 154.487 174.601 154.45 174.632 154.42C174.664 154.39 174.702 154.366 174.743 154.351C174.784 154.335 174.828 154.328 174.872 154.33C174.916 154.333 174.959 154.344 174.998 154.363C175.038 154.382 175.073 154.409 175.102 154.442L186.002 166.042C186.046 166.087 186.075 166.144 186.087 166.206C186.099 166.268 186.092 166.332 186.068 166.391C186.043 166.449 186.002 166.498 185.95 166.534C185.898 166.569 185.836 166.587 185.773 166.588V166.59Z" fill="white"/>
<path d="M262.103 117.875L261.765 118.607C260.279 119.983 254.15 120.956 246.787 120.956C238.31 120.956 231.416 119.667 231.416 117.962C231.414 117.933 231.418 117.903 231.427 117.875C231.656 116.203 238.462 114.775 246.798 114.775C255.134 114.775 261.874 116.195 262.098 117.875H262.103Z" fill="#E83151"/>
<path d="M268.944 92.848C268.944 93.5832 268.764 94.3074 268.42 94.957C268.074 95.6054 267.58 96.1631 266.978 96.585L266.678 96.793L264.34 109.236C264.152 110.238 263.761 111.19 263.192 112.035C262.623 112.881 261.887 113.601 261.03 114.152L257.84 116.184L255.317 117.801L254.148 120.609C251.974 120.828 249.483 120.959 246.817 120.959C244.34 120.965 241.864 120.845 239.4 120.598V101.298C239.402 100.464 239.585 99.6404 239.936 98.884L244.186 89.729C244.186 89.729 248.829 90.876 246.686 96.568C244.741 101.746 249.176 100.413 251.667 99.485C253.896 98.655 263.629 93.695 267.442 91.885C267.603 91.8134 267.78 91.7829 267.957 91.7964C268.133 91.8099 268.303 91.8669 268.452 91.9624C268.6 92.0578 268.723 92.1887 268.809 92.3432C268.895 92.4978 268.941 92.6712 268.944 92.848V92.848Z" fill="#A0505A"/>
<path d="M255.835 113.342C255.789 113.342 255.743 113.329 255.703 113.306C255.663 113.284 255.63 113.251 255.606 113.211C255.568 113.149 255.555 113.074 255.572 113.002C255.588 112.931 255.631 112.869 255.693 112.829L261.417 109.18C262.241 108.652 262.95 107.961 263.498 107.149C264.047 106.338 264.424 105.423 264.607 104.461C264.621 104.391 264.662 104.329 264.721 104.288C264.78 104.247 264.853 104.231 264.924 104.242C264.959 104.248 264.993 104.261 265.023 104.281C265.053 104.3 265.079 104.325 265.099 104.355C265.119 104.384 265.134 104.418 265.141 104.453C265.148 104.488 265.149 104.524 265.142 104.559C264.945 105.594 264.54 106.579 263.95 107.452C263.36 108.326 262.599 109.07 261.712 109.639L255.988 113.288C255.944 113.321 255.89 113.34 255.835 113.342V113.342Z" fill="#73325A"/>
<path d="M256.775 108.055C256.729 108.055 256.683 108.042 256.643 108.019C256.603 107.996 256.57 107.964 256.546 107.924C256.508 107.861 256.496 107.787 256.512 107.715C256.528 107.644 256.572 107.582 256.633 107.542L262.357 103.893C263.182 103.365 263.89 102.674 264.438 101.862C264.987 101.051 265.364 100.136 265.547 99.174C265.561 99.1037 265.603 99.0417 265.662 99.0009C265.721 98.9601 265.793 98.9437 265.864 98.955C265.899 98.9612 265.933 98.9744 265.963 98.9938C265.993 99.0132 266.019 99.0383 266.04 99.0678C266.06 99.0972 266.074 99.1305 266.082 99.1655C266.089 99.2006 266.09 99.2368 266.083 99.272C265.886 100.307 265.48 101.292 264.891 102.165C264.301 103.039 263.539 103.783 262.652 104.352L256.928 108.001C256.908 108.02 256.883 108.035 256.857 108.044C256.831 108.053 256.803 108.057 256.775 108.055V108.055Z" fill="#73325A"/>
<path d="M257.048 103.052C257.002 103.052 256.956 103.04 256.916 103.017C256.876 102.994 256.842 102.961 256.819 102.921C256.781 102.858 256.769 102.784 256.785 102.712C256.801 102.641 256.845 102.579 256.906 102.539L266.106 96.695C266.168 96.6569 266.243 96.6447 266.314 96.6609C266.386 96.6772 266.448 96.7206 266.488 96.782C266.508 96.8126 266.522 96.8469 266.528 96.8829C266.535 96.9189 266.534 96.9558 266.526 96.9915C266.517 97.0271 266.502 97.0608 266.481 97.0905C266.459 97.1201 266.432 97.1451 266.401 97.164L257.201 103.009C257.156 103.039 257.102 103.054 257.048 103.052V103.052Z" fill="#73325A"/>
<path d="M258.324 115.866L257.81 116.194L255.287 117.811L254.118 120.619C251.944 120.837 249.453 120.968 246.787 120.968C244.31 120.974 241.834 120.854 239.369 120.607V115.191C241.832 114.914 244.309 114.78 246.787 114.791C250.661 114.713 254.531 115.073 258.324 115.866V115.866Z" fill="#73325A"/>
<path d="M171.604 107.137C169.714 109.682 162.679 115.658 138.972 115.658C108.481 115.658 127.992 106.219 127.992 106.219L140.927 84.619L154.801 93.129V99.968C154.803 101.625 155.462 103.214 156.633 104.385C157.805 105.557 159.394 106.216 161.051 106.217H161.951C165.194 106.121 168.437 106.43 171.604 107.137V107.137Z" fill="#A0505A"/>
<path d="M154.793 93.122V94.87L127.993 106.21L140.917 84.61L154.793 93.122Z" fill="#73325A"/>
<path d="M155.523 93.974H158.473C159.776 93.9719 161.025 93.4533 161.947 92.5318C162.868 91.6103 163.387 90.3611 163.389 89.058V72.649H145.8V84.249C145.8 85.526 146.051 86.7906 146.539 87.9705C147.028 89.1503 147.744 90.2224 148.647 91.1255C149.55 92.0286 150.622 92.745 151.802 93.2337C152.981 93.7225 154.246 93.974 155.523 93.974V93.974Z" fill="#A0505A"/>
<path d="M163.007 88.38C162.443 88.4064 161.881 88.2877 161.377 88.0352C160.872 87.7827 160.44 87.405 160.123 86.938C160.09 86.8759 160.083 86.8036 160.102 86.7361C160.121 86.6687 160.166 86.6113 160.227 86.576C160.287 86.5408 160.359 86.5303 160.428 86.5469C160.496 86.5635 160.555 86.6058 160.593 86.665C160.864 87.0473 161.228 87.3549 161.65 87.5592C162.072 87.7636 162.538 87.8581 163.007 87.834C163.043 87.8336 163.078 87.8404 163.112 87.8539C163.145 87.8675 163.176 87.8876 163.201 87.913C163.227 87.9384 163.247 87.9687 163.26 88.002C163.274 88.0353 163.281 88.071 163.281 88.107C163.279 88.1791 163.25 88.248 163.199 88.299C163.148 88.3499 163.079 88.379 163.007 88.38Z" fill="#73325A"/>
<path d="M161.291 82.853C161.635 82.853 161.914 82.3099 161.914 81.64C161.914 80.9701 161.635 80.427 161.291 80.427C160.947 80.427 160.668 80.9701 160.668 81.64C160.668 82.3099 160.947 82.853 161.291 82.853Z" fill="#73325A"/>
<path d="M149.143 74.353C149.143 74.353 163.651 83.114 168.37 75.489C172.51 68.803 154.146 65.362 147.733 65.34C140.763 65.318 131.521 68.399 131.674 78.657C131.805 87.102 132.155 99.457 127.151 97.305C109.344 89.669 93.5249 97.644 93.4699 112.84C93.4149 128.036 111.059 129.456 111.496 125.535C111.955 121.624 100.55 122.52 102.09 132.68C103.63 142.84 110.414 155.534 125.96 155.534C144.729 155.545 156.68 130.834 145.067 128.321C136.167 126.387 154.134 143.572 159.467 125.71C165.203 106.483 144.479 100.19 143.967 88.577C143.455 76.964 149.143 74.353 149.143 74.353Z" fill="#001021"/>
<path d="M125.972 155.807H125.961C122.447 155.852 118.968 155.109 115.779 153.633C113.016 152.309 110.56 150.422 108.569 148.094C104.951 143.688 102.619 138.369 101.829 132.723C101.426 130.706 101.714 128.613 102.648 126.78C100.929 126.156 99.3348 125.231 97.9398 124.049C96.374 122.647 95.1377 120.915 94.3198 118.979C93.5018 117.043 93.1225 114.949 93.2088 112.849C93.1318 109.832 93.827 106.845 95.2285 104.172C96.63 101.499 98.6913 99.2286 101.217 97.576C104.705 95.3775 108.729 94.1795 112.852 94.113C117.817 94.0235 122.741 95.0308 127.272 97.063C127.558 97.2194 127.88 97.2978 128.206 97.29C128.532 97.2823 128.85 97.1888 129.129 97.019C131.685 95.304 131.529 86.138 131.434 79.441L131.423 78.665C131.333 77.0095 131.584 75.3532 132.161 73.7989C132.738 72.2447 133.628 70.8257 134.777 69.63C138.884 65.479 145.221 65.052 147.755 65.064C152.518 65.086 166.207 67.238 168.828 71.964C169.145 72.5324 169.295 73.1795 169.258 73.8296C169.221 74.4797 169 75.1059 168.621 75.635C168.062 76.5303 167.302 77.2827 166.401 77.8327C165.5 78.3827 164.483 78.7149 163.432 78.803C161.236 78.9881 159.026 78.7318 156.932 78.049C154.224 77.2103 151.616 76.0782 149.154 74.673C148.103 75.3365 147.223 76.2386 146.587 77.306C145.387 79.196 143.998 82.67 144.26 88.569C144.46 93.069 147.832 96.85 151.416 100.837C156.966 107.031 163.258 114.045 159.752 125.8C158.67 129.427 156.988 131.918 154.752 133.207C153.294 134.033 151.606 134.359 149.945 134.136C149.955 134.618 149.933 135.099 149.879 135.578C149.42 139.838 146.613 144.908 142.538 148.797C138.119 153.172 132.188 155.681 125.972 155.807ZM103.161 126.955C102.254 128.702 101.972 130.706 102.361 132.636C104 143.571 111.068 155.25 125.961 155.25H125.972C132.046 155.132 137.839 152.669 142.14 148.378C146.128 144.578 148.87 139.638 149.318 135.498C149.371 135.008 149.389 134.515 149.373 134.023C149.089 133.968 148.794 133.903 148.499 133.823C144.938 132.862 142.043 130.109 142.392 128.678C142.523 128.143 143.102 127.596 145.134 128.033C146.444 128.259 147.634 128.933 148.503 129.939C149.372 130.945 149.864 132.221 149.897 133.55C152.836 133.932 157.02 132.982 159.216 125.619C162.635 114.159 156.452 107.266 151 101.181C147.352 97.117 143.91 93.271 143.7 88.574C143.438 82.5 144.88 78.906 146.136 76.95C146.829 75.7581 147.828 74.7736 149.031 74.099L149.162 74.034L149.282 74.11C151.742 75.5332 154.355 76.6738 157.071 77.51C158.691 78.0159 160.374 78.2919 162.071 78.33C164.871 78.33 166.892 77.33 168.134 75.33C168.46 74.884 168.653 74.3539 168.688 73.8022C168.724 73.2505 168.601 72.7001 168.334 72.216C165.942 67.89 152.81 65.616 147.741 65.596C145.283 65.585 139.11 65.996 135.156 69.996C134.058 71.1398 133.207 72.4974 132.657 73.9841C132.106 75.4709 131.868 77.055 131.956 78.638L131.967 79.413C132.087 86.613 132.229 95.582 129.421 97.461C129.069 97.6834 128.664 97.8085 128.248 97.8238C127.831 97.8391 127.418 97.7439 127.051 97.548C117.645 93.517 108.097 93.692 101.509 98.018C99.0607 99.6217 97.063 101.824 95.7054 104.417C94.3478 107.01 93.6753 109.906 93.7518 112.832C93.7188 120.895 98.5908 124.762 102.929 126.28C103.449 125.485 104.125 124.805 104.917 124.28C106.829 123.013 109.352 122.729 110.794 123.624C111.131 123.812 111.404 124.096 111.578 124.441C111.751 124.786 111.817 125.175 111.766 125.558C111.602 126.967 109.603 127.809 106.766 127.645C105.538 127.58 104.326 127.348 103.161 126.955V126.955ZM143.833 128.441C143.309 128.441 142.981 128.572 142.915 128.834C142.686 129.762 145.133 132.373 148.64 133.324C148.858 133.379 149.088 133.433 149.328 133.488C149.281 132.299 148.825 131.162 148.037 130.27C147.248 129.379 146.176 128.786 145.002 128.594C144.619 128.498 144.227 128.446 143.833 128.441V128.441ZM103.456 126.475C104.54 126.822 105.663 127.035 106.799 127.109C109.279 127.251 111.099 126.596 111.223 125.514C111.26 125.234 111.211 124.949 111.083 124.697C110.954 124.445 110.751 124.238 110.502 124.105C109.402 123.428 107.115 123.482 105.202 124.75C104.517 125.211 103.925 125.796 103.456 126.475V126.475Z" fill="white"/>
<path d="M158.505 80.996H148.127V81.651H158.505V80.996Z" fill="#001021"/>
<path d="M161.696 85.824C159.896 85.824 158.418 83.978 158.418 81.717C158.418 79.456 159.881 77.609 161.696 77.609C163.511 77.609 164.973 79.455 164.973 81.717C164.973 83.979 163.498 85.824 161.696 85.824ZM161.696 78.264C160.254 78.264 159.074 79.815 159.074 81.716C159.074 83.617 160.254 85.168 161.696 85.168C163.138 85.168 164.317 83.617 164.317 81.716C164.317 79.815 163.138 78.265 161.696 78.265V78.264Z" fill="#001021"/>
<path d="M142.959 76.67H142.304V65.701C142.305 64.8235 142.654 63.9824 143.275 63.3619C143.895 62.7414 144.737 62.3923 145.614 62.391H148.869C149.747 62.392 150.588 62.7411 151.209 63.3615C151.829 63.982 152.179 64.8233 152.18 65.701H151.525C151.524 64.9971 151.244 64.3222 150.746 63.8245C150.249 63.3268 149.574 63.0468 148.87 63.046H145.615C144.911 63.0468 144.236 63.3268 143.739 63.8245C143.241 64.3222 142.961 64.9971 142.96 65.701L142.959 76.67Z" fill="#506CF0"/>
<path d="M145.768 88.753H139.497C139.115 88.7531 138.737 88.678 138.385 88.5321C138.032 88.3861 137.712 88.172 137.442 87.9022C137.172 87.6323 136.958 87.3119 136.812 86.9592C136.666 86.6066 136.591 86.2286 136.591 85.847V79.576C136.591 79.1943 136.666 78.8164 136.812 78.4638C136.958 78.1111 137.172 77.7908 137.442 77.5209C137.712 77.251 138.032 77.0369 138.385 76.8909C138.737 76.7449 139.115 76.6699 139.497 76.67H145.768C146.15 76.6692 146.528 76.7438 146.881 76.8896C147.234 77.0354 147.555 77.2494 147.825 77.5194C148.095 77.7894 148.309 78.11 148.454 78.463C148.6 78.8159 148.675 79.1942 148.674 79.576V85.847C148.672 86.6172 148.366 87.3555 147.821 87.9001C147.277 88.4447 146.538 88.7514 145.768 88.753Z" fill="white"/>
<path d="M145.763 89.08H139.492C138.635 89.0784 137.813 88.7372 137.207 88.131C136.601 87.5249 136.26 86.7032 136.258 85.846V79.575C136.26 78.7178 136.601 77.8961 137.207 77.29C137.813 76.6838 138.635 76.3426 139.492 76.341H145.763C146.62 76.3426 147.442 76.6838 148.048 77.29C148.654 77.8961 148.995 78.7178 148.997 79.575V85.842C148.995 86.6993 148.653 87.5209 148.047 88.1276C147.441 88.7342 146.62 89.0766 145.763 89.08V89.08ZM139.492 76.997C138.809 76.9983 138.154 77.2704 137.671 77.7535C137.187 78.2367 136.915 78.8917 136.914 79.575V85.842C136.915 86.5253 137.187 87.1803 137.671 87.6635C138.154 88.1466 138.809 88.4187 139.492 88.42H145.763C146.445 88.4142 147.097 88.1408 147.58 87.6586C148.062 87.1763 148.335 86.5239 148.341 85.842V79.571C148.34 78.8877 148.068 78.2327 147.584 77.7495C147.101 77.2663 146.446 76.9943 145.763 76.993L139.492 76.997Z" fill="#506CF0"/>
<path d="M144.14 86.688H141.078C140.442 86.688 139.831 86.4352 139.381 85.9851C138.931 85.535 138.678 84.9245 138.678 84.288V81.222C138.678 80.5855 138.931 79.975 139.381 79.5249C139.831 79.0748 140.442 78.822 141.078 78.822H144.137C144.452 78.822 144.764 78.8841 145.056 79.0047C145.347 79.1253 145.611 79.3021 145.834 79.5249C146.057 79.7478 146.234 80.0124 146.354 80.3036C146.475 80.5947 146.537 80.9068 146.537 81.222V84.281C146.538 84.5965 146.477 84.9091 146.357 85.2009C146.237 85.4927 146.06 85.758 145.838 85.9815C145.615 86.2051 145.351 86.3825 145.059 86.5038C144.768 86.625 144.456 86.6876 144.14 86.688V86.688Z" fill="white"/>
<path d="M144.14 87.015H141.081C140.357 87.0147 139.662 86.7269 139.15 86.2148C138.638 85.7027 138.35 85.0082 138.35 84.284V81.225C138.35 80.5008 138.638 79.8063 139.15 79.2942C139.662 78.7821 140.357 78.4943 141.081 78.494H144.14C144.864 78.4943 145.559 78.7821 146.071 79.2942C146.583 79.8063 146.871 80.5008 146.871 81.225V84.284C146.871 85.0082 146.583 85.7027 146.071 86.2148C145.559 86.7269 144.864 87.0147 144.14 87.015V87.015ZM141.081 79.15C140.808 79.15 140.539 79.2037 140.287 79.308C140.035 79.4124 139.806 79.5653 139.614 79.7581C139.421 79.9509 139.268 80.1797 139.164 80.4316C139.059 80.6835 139.006 80.9534 139.006 81.226V84.285C139.006 84.5575 139.06 84.8273 139.164 85.0791C139.268 85.3308 139.421 85.5595 139.614 85.7522C139.806 85.9449 140.035 86.0978 140.287 86.2021C140.539 86.3063 140.809 86.36 141.081 86.36H144.14C144.413 86.3601 144.683 86.3065 144.934 86.2023C145.186 86.0981 145.415 85.9453 145.608 85.7526C145.801 85.5599 145.954 85.3311 146.058 85.0793C146.162 84.8275 146.216 84.5576 146.216 84.285V81.226C146.216 80.9533 146.163 80.6833 146.058 80.4314C145.954 80.1794 145.801 79.9505 145.608 79.7577C145.415 79.5649 145.187 79.4121 144.935 79.3078C144.683 79.2035 144.413 79.1499 144.14 79.15H141.081Z" fill="#506CF0"/>
<path d="M145.086 78.9365L139.637 86.181L140.16 86.5747L145.61 79.3301L145.086 78.9365Z" fill="#506CF0"/>
<path d="M143.285 78.689L138.569 84.943L139.092 85.3374L143.808 79.0834L143.285 78.689Z" fill="#506CF0"/>
<path d="M146.149 80.2333L141.433 86.484L141.956 86.8783L146.671 80.6276L146.149 80.2333Z" fill="#506CF0"/>
<path d="M146.274 82.563L143.314 86.488L143.837 86.8824L146.797 82.9573L146.274 82.563Z" fill="#506CF0"/>
<path d="M141.361 78.6907L138.416 82.586L138.939 82.981L141.883 79.0857L141.361 78.6907Z" fill="#506CF0"/>
<path d="M131.707 274.088H115.593V273.433H131.707C133.286 273.431 134.799 272.803 135.915 271.687C137.031 270.571 137.659 269.057 137.661 267.479V260.301H138.317V267.479C138.314 269.231 137.617 270.911 136.378 272.15C135.139 273.388 133.459 274.086 131.707 274.088V274.088Z" fill="#506CF0"/>
<path d="M144.325 260.378H143.67V326.275H144.325V260.378Z" fill="#506CF0"/>
<path d="M173.395 347.403H172.74C172.74 335.932 161.28 326.603 147.198 326.603H140.712C126.63 326.603 115.17 335.933 115.17 347.403H114.515C114.515 335.571 126.27 325.947 140.715 325.947H147.204C161.641 325.935 173.395 335.571 173.395 347.403Z" fill="#506CF0"/>
<path d="M206.683 261.383H112.043C109.769 261.383 107.587 260.479 105.979 258.871C104.371 257.263 103.467 255.081 103.467 252.807H208.922L206.683 261.383Z" fill="#001021"/>
<path d="M114.25 361.376C118.112 361.376 121.242 358.246 121.242 354.384C121.242 350.522 118.112 347.392 114.25 347.392C110.388 347.392 107.258 350.522 107.258 354.384C107.258 358.246 110.388 361.376 114.25 361.376Z" fill="#001021"/>
<path d="M110.688 275.547H124.712C124.985 275.547 125.255 275.494 125.507 275.389C125.759 275.285 125.987 275.132 126.18 274.939C126.373 274.746 126.526 274.518 126.63 274.266C126.735 274.014 126.788 273.744 126.788 273.471V273.318C126.788 273.045 126.735 272.775 126.63 272.523C126.526 272.272 126.373 272.043 126.18 271.85C125.987 271.657 125.759 271.505 125.507 271.4C125.255 271.296 124.985 271.243 124.712 271.243H110.688C110.415 271.243 110.146 271.296 109.894 271.401C109.642 271.505 109.413 271.658 109.22 271.85C109.027 272.043 108.874 272.272 108.77 272.524C108.666 272.776 108.612 273.045 108.612 273.318V273.471C108.614 274.021 108.833 274.548 109.222 274.937C109.611 275.326 110.138 275.545 110.688 275.547V275.547Z" fill="#001021"/>
<path d="M171.079 253.387H103.242L81.4649 192.418C81.0664 191.3 80.9424 190.102 81.1033 188.926C81.2641 187.75 81.7051 186.629 82.3891 185.659C83.0732 184.689 83.9804 183.897 85.0342 183.35C86.0881 182.804 87.2578 182.518 88.445 182.518H137.813C140.143 182.522 142.416 183.246 144.32 184.589C146.224 185.932 147.668 187.83 148.454 190.024L171.079 253.387ZM103.696 252.731H170.142L147.834 190.231C147.09 188.166 145.729 186.38 143.934 185.115C142.14 183.85 140 183.169 137.805 183.163H88.456C87.3741 183.163 86.308 183.424 85.3478 183.922C84.3875 184.421 83.561 185.143 82.9378 186.027C82.3147 186.911 81.9131 187.933 81.7669 189.005C81.6208 190.077 81.7343 191.168 82.0979 192.187L103.696 252.731Z" fill="#001021"/>
<path d="M165.628 253.386H106.788V252.731H164.697L143.154 192.317C142.436 190.325 141.121 188.601 139.39 187.382C137.658 186.162 135.593 185.505 133.475 185.5H83.4971V184.845H133.477C135.73 184.85 137.926 185.549 139.768 186.847C141.609 188.145 143.006 189.979 143.768 192.099L165.628 253.386Z" fill="#001021"/>
<path d="M172.948 361.376C176.81 361.376 179.94 358.246 179.94 354.384C179.94 350.522 176.81 347.392 172.948 347.392C169.086 347.392 165.956 350.522 165.956 354.384C165.956 358.246 169.086 361.376 172.948 361.376Z" fill="#001021"/>
</svg>
