<svg xmlns="http://www.w3.org/2000/svg" width="13.758" height="9.673" viewBox="0 0 13.758 9.673"><defs><style>.a{fill:#fff;}</style></defs><g transform="translate(0 -76)"><g transform="translate(9.464 76.691)"><g transform="translate(0 0)"><path class="a" d="M356.383,101.721l-4.172,4.146,4.172,4.146a1.2,1.2,0,0,0,.121-.518v-7.255A1.2,1.2,0,0,0,356.383,101.721Z" transform="translate(-352.211 -101.721)"/></g></g><g transform="translate(0.691 76)"><g transform="translate(0 0)"><path class="a" d="M37.578,76H26.239a1.2,1.2,0,0,0-.518.121l5.333,5.306a1.21,1.21,0,0,0,1.71,0L38.1,76.121A1.2,1.2,0,0,0,37.578,76Z" transform="translate(-25.721 -76)"/></g></g><g transform="translate(0 76.691)"><g transform="translate(0 0)"><path class="a" d="M.121,101.721a1.2,1.2,0,0,0-.121.518v7.255a1.2,1.2,0,0,0,.121.518l4.172-4.146Z" transform="translate(0 -101.721)"/></g></g><g transform="translate(0.691 81.407)"><g transform="translate(0 0)"><path class="a" d="M33.924,277.211l-.59.59a2.017,2.017,0,0,1-2.85,0l-.59-.59-4.172,4.146a1.2,1.2,0,0,0,.518.121H37.578a1.2,1.2,0,0,0,.518-.121Z" transform="translate(-25.721 -277.211)"/></g></g></g></svg>