<svg xmlns="http://www.w3.org/2000/svg" width="42.939" height="43.281" viewBox="0 0 42.939 43.281"><defs><style>.a{fill:#fdc9a6;}.b{fill:#683b0d;}.c{fill:#506cf0;}.d{fill:#cbcbcb;}.e{fill:#d32b39;}.f{fill:#e83151;}</style></defs><g transform="translate(-35.87 -50.967)"><path class="a" d="M235,109.262a3.935,3.935,0,0,0-3.935,3.935v2.623a3.924,3.924,0,0,0,1.312,2.932v4.916h5.246v-4.916a3.924,3.924,0,0,0,1.312-2.932V113.2A3.935,3.935,0,0,0,235,109.262Z" transform="translate(-182.235 -53.497)"/><path class="b" d="M222.09,92.889l-.021,2.131,2.364-2.131h5.526l1.717-1.717a3.617,3.617,0,0,0-4.564-5.566l-1.088.725h-2.689a3.006,3.006,0,0,0-2.5,4.673Z" transform="translate(-173.258 -33.211)"/><path class="c" d="M186.1,194.623l-2.623,7.869-4.268-6.4a5.574,5.574,0,0,0-2.623-2.105l-5.066-1.964L166.427,192l-6.823,1.949a5.574,5.574,0,0,0-3.454,2.867l-3.63,7.261a4.918,4.918,0,0,0-.519,2.2v.246a4.918,4.918,0,0,0,3.725,4.771l6.768,1.692v3.935h13.115V203.8l3.614,3.614a5.574,5.574,0,0,0,3.941,1.633h.344a5.574,5.574,0,0,0,5.238-3.669l3.912-10.758Zm-23.608,13.116-3.935-1.312,3.935-6.558Z" transform="translate(-116.13 -122.671)"/><path class="d" d="M368,136v2.623a2.623,2.623,0,0,0,5.246,0V136Z" transform="translate(-296.718 -75.852)"/><path class="e" d="M216,250.492V240l6.558,1.312L229.116,240v10.492l-6.558,1.312Z" transform="translate(-169.638 -162.802)"/><path class="a" d="M361.312,174.558,360,170.623,362.623,168h2.623l1.312,2.623-1.312,3.935Z" transform="translate(-290.03 -102.605)"/><path class="f" d="M356.369,89.181l-1.538-2.307A4.421,4.421,0,0,1,358.509,80h.966a4.421,4.421,0,0,1,3.679,6.874l-1.538,2.307Z" transform="translate(-285.087 -29.033)"/><path class="a" d="M216,288h5.246v5.246H216Z" transform="translate(-169.638 -202.932)"/></g></svg>