<svg xmlns="http://www.w3.org/2000/svg" width="40.017" height="40.017" viewBox="0 0 40.017 40.017"><defs><style>.a{fill:#ded8d0;}.b{fill:#c9c4bd;}.c{fill:#e83151;}.d{fill:#c20325;}.e{fill:#506cf0;}.f{fill:#223b5a;}</style></defs><g transform="translate(-2 -2)"><path class="a" d="M34.013,7a2.667,2.667,0,0,1,2.668,2.668V37.013a2.667,2.667,0,0,1-2.668,2.668H4.668A2.667,2.667,0,0,1,2,37.013V9.668A2.667,2.667,0,0,1,4.668,7Z" transform="translate(0 -1.665)"/><path class="b" d="M4.668,47.46H34.013a2.667,2.667,0,0,0,2.668-2.668V30.358C30.369,37.264,19.691,42.344,2,43.292v1.5A2.667,2.667,0,0,0,4.668,47.46Z" transform="translate(0 -9.445)"/><circle class="c" cx="7.5" cy="7.5" r="7.5" transform="translate(27 27)"/><path class="d" d="M52.468,42.209a7.326,7.326,0,0,1-10.26,10.259,7.33,7.33,0,1,0,10.26-10.259Z" transform="translate(-13.392 -13.392)"/><path class="c" d="M36.681,13.669H2v-4A2.668,2.668,0,0,1,4.668,7H34.013a2.668,2.668,0,0,1,2.668,2.668Z" transform="translate(0 -1.665)"/><path class="e" d="M10.334,8.669A1.334,1.334,0,0,1,9,7.336v-4a1.334,1.334,0,0,1,2.668,0v4A1.334,1.334,0,0,1,10.334,8.669Z" transform="translate(-2.331)"/><path class="e" d="M21.334,8.669A1.334,1.334,0,0,1,20,7.336v-4a1.334,1.334,0,0,1,2.668,0v4A1.334,1.334,0,0,1,21.334,8.669Z" transform="translate(-5.995)"/><path class="e" d="M33.334,8.669A1.334,1.334,0,0,1,32,7.336v-4a1.334,1.334,0,0,1,2.668,0v4A1.334,1.334,0,0,1,33.334,8.669Z" transform="translate(-9.992)"/><path class="e" d="M44.334,8.669A1.334,1.334,0,0,1,43,7.336v-4a1.334,1.334,0,0,1,2.668,0v4A1.334,1.334,0,0,1,44.334,8.669Z" transform="translate(-13.655)"/><g transform="translate(6.002 15.339)"><path class="e" d="M8,22h4v4H8Z" transform="translate(-8 -22)"/><path class="e" d="M19,22h4v4H19Z" transform="translate(-11.664 -22)"/><path class="e" d="M30,22h4v4H30Z" transform="translate(-15.327 -22)"/><path class="e" d="M41,22h4v4H41Z" transform="translate(-18.991 -22)"/><path class="e" d="M8,33h4v4H8Z" transform="translate(-8 -25.664)"/><path class="e" d="M19,33h4v4H19Z" transform="translate(-11.664 -25.664)"/><path class="e" d="M30,33h4v4H30Z" transform="translate(-15.327 -25.664)"/><path class="e" d="M41,33h4v4H41Z" transform="translate(-18.991 -25.664)"/><path class="e" d="M8,44h4v4H8Z" transform="translate(-8 -29.327)"/><path class="e" d="M19,44h4v4H19Z" transform="translate(-11.664 -29.327)"/><path class="e" d="M30,44h4v4H30Z" transform="translate(-15.327 -29.327)"/></g><path class="f" d="M46.209,51.524l-.834-1.042,3.085-2.467V43h1.334v5.656Z" transform="translate(-14.446 -13.655)"/><circle class="f" cx="1.5" cy="1.5" r="1.5" transform="translate(33 33)"/></g></svg>