<svg xmlns="http://www.w3.org/2000/svg" width="38.146" height="41.665" viewBox="0 0 38.146 41.665"><defs><style>.a{fill:rgba(80,108,240,0.76);}.b{fill:#f7ecad;}.c{fill:#f7f4f7;}.d{fill:#506cf0;}.e{fill:#e0dde0;}.f{fill:gray;}.g{fill:#e83151;}.h{fill:#fcf7e0;}</style></defs><g transform="translate(-21.618)"><g transform="translate(21.618 0)"><path class="a" d="M49.582,38.141V3.515A3.728,3.728,0,0,0,47.089,0H25.318a3.694,3.694,0,0,0-3.7,3.689V37.967a3.694,3.694,0,0,0,3.7,3.689H47.089a3.728,3.728,0,0,0,2.493-3.515Z" transform="translate(-21.618 0)"/><path class="b" d="M320.351,0h-5.493a3.694,3.694,0,0,1,3.7,3.689V37.967a3.694,3.694,0,0,1-3.7,3.689h5.493a3.694,3.694,0,0,0,3.7-3.689V3.689A3.694,3.694,0,0,0,320.351,0Z" transform="translate(-290.995 0)"/><g transform="translate(2.868)"><path class="c" d="M81.953,76.868V42.241c0-.028,0-.056,0-.084H58.9a2.037,2.037,0,0,1-2.04,2.034v31a2.038,2.038,0,0,1,2.021,1.757H81.951C81.951,76.924,81.953,76.9,81.953,76.868Z" transform="translate(-56.856 -38.726)"/><path class="d" d="M320.351,0h-5.493a3.694,3.694,0,0,1,3.7,3.689V37.967a3.694,3.694,0,0,1-3.7,3.689h5.493a3.694,3.694,0,0,0,3.7-3.689V3.689A3.694,3.694,0,0,0,320.351,0Z" transform="translate(-293.863 0)"/><path class="e" d="M360.793,42.157h-.6c.006.086.01.172.01.259V76.693c0,.087,0,.173-.01.259h.615a2.038,2.038,0,0,1,2.021-1.757v-31A2.037,2.037,0,0,1,360.793,42.157Z" transform="translate(-335.513 -38.726)"/><g transform="translate(2.732 8.992)"><g transform="translate(5.546)"><path class="f" d="M168.151,111.76h-8.936a.629.629,0,1,1,0-1.258h8.936a.629.629,0,1,1,0,1.258Z" transform="translate(-158.585 -110.502)"/></g><g transform="translate(0 5.207)"><path class="f" d="M111.657,175.747H91.063a.629.629,0,1,1,0-1.258h20.595a.629.629,0,1,1,0,1.258Z" transform="translate(-90.432 -174.489)"/></g><g transform="translate(0 9.264)"><path class="f" d="M111.657,225.6H91.063a.629.629,0,1,1,0-1.258h20.595a.629.629,0,1,1,0,1.258Z" transform="translate(-90.432 -224.347)"/></g><g transform="translate(0 13.321)"><path class="f" d="M111.657,275.461H91.063a.629.629,0,1,1,0-1.258h20.595a.629.629,0,1,1,0,1.258Z" transform="translate(-90.432 -274.203)"/></g><g transform="translate(0 17.379)"><path class="f" d="M111.657,325.318H91.063a.629.629,0,1,1,0-1.258h20.595a.629.629,0,1,1,0,1.258Z" transform="translate(-90.432 -324.06)"/></g><g transform="translate(0 21.436)"><path class="f" d="M111.657,375.176H91.063a.629.629,0,1,1,0-1.258h20.595a.629.629,0,1,1,0,1.258Z" transform="translate(-90.432 -373.918)"/></g></g><g transform="translate(19.946 21.666)"><g transform="translate(0.459 8.858)"><path class="g" d="M311.347,386.016l-.81-1.933a.374.374,0,0,0-.43-.22l-2.046.475a.374.374,0,0,1-.418-.534l4.465-8.7,4.383,2.237-4.465,8.7A.375.375,0,0,1,311.347,386.016Z" transform="translate(-307.6 -375.105)"/></g><g transform="translate(5.984 8.858)"><path class="g" d="M380.631,386.015l.81-1.933a.375.375,0,0,1,.43-.22l2.046.475a.374.374,0,0,0,.418-.534l-4.465-8.7-4.383,2.237,4.465,8.7A.375.375,0,0,0,380.631,386.015Z" transform="translate(-375.487 -375.104)"/></g><path class="d" d="M310.931,266.982a1.531,1.531,0,0,0,1.9.614,1.528,1.528,0,0,1,2.114,1.531,1.525,1.525,0,0,0,1.172,1.609,1.523,1.523,0,0,1,.807,2.478,1.522,1.522,0,0,0,0,1.988,1.523,1.523,0,0,1-.807,2.478,1.525,1.525,0,0,0-1.172,1.609,1.528,1.528,0,0,1-2.114,1.531,1.531,1.531,0,0,0-1.9.614,1.531,1.531,0,0,1-2.613,0,1.531,1.531,0,0,0-1.9-.614,1.528,1.528,0,0,1-2.114-1.531,1.525,1.525,0,0,0-1.172-1.609,1.523,1.523,0,0,1-.807-2.478,1.522,1.522,0,0,0,0-1.988,1.523,1.523,0,0,1,.807-2.478,1.525,1.525,0,0,0,1.172-1.609,1.528,1.528,0,0,1,2.114-1.531,1.531,1.531,0,0,0,1.9-.614A1.531,1.531,0,0,1,310.931,266.982Z" transform="translate(-301.957 -266.25)"/><ellipse class="h" cx="3.655" cy="3.644" rx="3.655" ry="3.644" transform="translate(4.012 4.315)"/></g></g></g></g></svg>