<svg xmlns="http://www.w3.org/2000/svg" width="41.146" height="41.147" viewBox="0 0 41.146 41.147"><defs><style>.a{fill:#e83151;}.b{fill:#d40025;}.c{fill:#c59191;}.d{fill:#fff;}.e{fill:#ffcebf;}.f{fill:#506cf0;}.g{fill:#ffb09e;}.h{fill:#d60026;}.i{fill:#b98080;}.j{fill:#efedef;}.k{fill:#e5e1e5;}.l{fill:#c9bfc8;}</style></defs><g transform="translate(0 0)"><g transform="translate(0.306 0)"><path class="a" d="M3.806,6.482a6.482,6.482,0,1,1,10.742,4.885.281.281,0,0,0,.041.455l1.221.723a.225.225,0,0,1-.115.42H10.165a6.482,6.482,0,0,1-6.359-6.48Z" transform="translate(-3.806 0)"/></g><path class="b" d="M75.892,12.544l-1.221-.723a.281.281,0,0,1-.043-.453A6.481,6.481,0,0,0,70.563,0a6.532,6.532,0,0,0-1.425.114,6.48,6.48,0,0,1,3.9,10.341,1.4,1.4,0,0,0,.378,2.071l.026.015a.225.225,0,0,1-.108.419h2.44A.225.225,0,0,0,75.892,12.544Z" transform="translate(-63.582 0)"/><g transform="translate(9.455 0)"><g transform="translate(0 0)"><path class="c" d="M178.814,23.527h-14.7a4.336,4.336,0,0,1-3.337-7.106l.13-.157a6.936,6.936,0,0,0,1.6-4.43V9a9,9,0,0,1,18,0V11.93A6.936,6.936,0,0,0,182.13,16.4,4.336,4.336,0,0,1,178.814,23.527Z" transform="translate(-156.381 0)"/><path class="d" d="M147.812,251.683V261.4H117.65v-9.648a5.428,5.428,0,0,1,3.321-5l4.869-2.117,1.639-.713a3.407,3.407,0,0,0,2.048-3.125v-.629h6.4v.6A3.407,3.407,0,0,0,138,243.9l6.586,2.823a5.427,5.427,0,0,1,3.228,4.962Z" transform="translate(-117.65 -220.869)"/><path class="e" d="M215.926,246.956a23.324,23.324,0,0,0,13.782-.129l.794-1.891-2.418-1.036a3.407,3.407,0,0,1-2.065-3.131v-.6h-6.4v.629a3.407,3.407,0,0,1-2.048,3.124l-1.958.851Z" transform="translate(-207.736 -220.871)"/><g transform="translate(0 23.726)"><path class="f" d="M396.015,297.352l-4.961-2.126h0v16.809h8.191v-9.721A5.428,5.428,0,0,0,396.015,297.352Z" transform="translate(-369.081 -295.226)"/><path class="f" d="M125.841,295.75v16.767H117.65V302.87a5.428,5.428,0,0,1,3.321-5Z" transform="translate(-117.65 -295.708)"/></g></g><g transform="translate(6.122)"><path class="g" d="M267.472,243.688a5.387,5.387,0,0,0,2.079-.415,3.406,3.406,0,0,1-1.1-2.5v-.6h-6.4v.629a3.4,3.4,0,0,1-.3,1.393,5.384,5.384,0,0,0,3.727,1.493h1.993Z" transform="translate(-256.293 -220.872)"/><path class="e" d="M238.464,80.061v5.3a5.4,5.4,0,0,1-5.4,5.4h-1.993a5.4,5.4,0,0,1-5.4-5.4v-5.3a3.516,3.516,0,0,1,3.516-3.516h5.77A3.516,3.516,0,0,1,238.464,80.061Z" transform="translate(-223.104 -70.394)"/><path class="a" d="M334.981,154.593c0,.007-.005.014-.008.022a5.7,5.7,0,0,1-1.947,2.9,5.445,5.445,0,0,1-1.956.956.612.612,0,1,0,.311,1.183,6.665,6.665,0,0,0,2.392-1.17,6.551,6.551,0,0,0,1.2-1.211c0-.047,0-.095,0-.142v-2.542Z" transform="translate(-319.621 -142.169)"/><path class="h" d="M298.026,196.9h-1.433a1.181,1.181,0,0,1,0-2.363h1.433a1.181,1.181,0,1,1,0,2.363Z" transform="translate(-287.247 -178.903)"/><path class="i" d="M321.1,19.333c.137-1.731,1.795-2.88,3.381-3.475a8.994,8.994,0,0,1,4.38,7.724V24.2c-.145.03-.289.057-.432.078a7.286,7.286,0,0,1-2.126,0C323.023,23.843,320.93,21.424,321.1,19.333Z" transform="translate(-310.86 -14.584)"/><path class="c" d="M202.827,0a8.958,8.958,0,0,1,5.413,1.81,16.051,16.051,0,0,1-5.713,5.807A15.925,15.925,0,0,1,196.465,9.7h-2.637V9a9,9,0,0,1,9-9Z" transform="translate(-193.828)"/></g></g><path class="j" d="M194.46,372.326H174.879l-1.08-10.188a1.223,1.223,0,0,1,1.217-1.352h19.308a1.223,1.223,0,0,1,1.217,1.352Z" transform="translate(-159.825 -331.791)"/><path class="k" d="M401.273,360.785h-2.447a1.223,1.223,0,0,1,1.217,1.352l-1.08,10.188h2.447l1.08-10.188A1.223,1.223,0,0,0,401.273,360.785Z" transform="translate(-366.775 -331.791)"/><g transform="translate(0 39.941)"><path class="l" d="M40.544,498.205H.6A.6.6,0,1,1,.6,497H40.544a.6.6,0,1,1,0,1.205Z" transform="translate(0 -497)"/></g><circle class="l" cx="1.713" cy="1.713" r="1.713" transform="translate(23.131 33.052)"/><g transform="translate(3.729 5.87)"><circle class="d" cx="0.612" cy="0.612" r="0.612"/><circle class="d" cx="0.612" cy="0.612" r="0.612" transform="translate(2.447)"/><circle class="d" cx="0.612" cy="0.612" r="0.612" transform="translate(4.894)"/></g></g></svg>